<svg width="25" height="17" viewBox="0 0 25 17" fill="none" xmlns="http://www.w3.org/2000/svg">
<path d="M25 14.5968C25 15.9677 23.9113 16.9355 22.5806 16.9355H2.41935C1.08871 16.9355 0 15.9677 0 14.5968V2.33871C0 0.967742 1.08871 0 2.41935 0H22.5806C23.9113 0 25 0.967742 25 2.33871V14.5968Z" fill="#29337A"/>
<path d="M2.41943 0H22.5807C23.9114 0 25.0001 0.967742 25.0001 2.33871V14.5968C25.0001 15.9677 23.7098 16.9355 22.3791 16.9355" fill="#1B265B"/>
<path d="M2.41943 0H22.5807C23.9114 0 25.0001 0.967742 25.0001 2.33871V6.85484" fill="#111D49"/>
<path d="M25 14.5565C25 15.9274 23.9113 16.9355 22.5806 16.9355H2.41935C1.08871 16.9355 0 15.8871 0 14.5161" fill="#111D49"/>
<path d="M13.7097 8.46774L22.2984 0H19.8791L12.5 7.37903L5.12101 0H2.70166L11.2904 8.46774L2.70166 16.9355H5.12101L12.5 9.55645L19.8791 16.9355H22.2984L13.7097 8.46774Z" fill="white"/>
<path d="M5.16133 14.5161L2.70166 16.9355H5.12101L7.54036 14.5161H5.16133Z" fill="#D9ECED"/>
<path d="M17.46 14.5161L19.8793 16.9355H22.2987L19.839 14.5161H17.46Z" fill="#D9ECED"/>
<path d="M20.7259 15.4435L13.7097 8.54839L22.2984 0H19.8791L12.5 7.37903L5.12101 0H2.70166L4.31456 1.53226L20.7259 15.4435Z" fill="#D9ECED"/>
<path d="M25 6.85484H14.1129V0H10.8871V6.85484H0V10.0806H10.8871V16.9355H14.1129V10.0806H25V6.85484Z" fill="white"/>
<path d="M14.113 14.5161H10.8872V16.9355H14.113V14.5161Z" fill="#D9ECED"/>
<path d="M14.113 0H10.8872V6.85484H10.605L14.3953 10.0806H25.0001V6.85484H14.113V0Z" fill="#D9ECED"/>
<path d="M25 7.66129H13.3065H13.7903L21.8145 0H21.0081L13.3065 7.66129V0H11.6935V7.66129L3.91129 0H3.18548L10.8871 7.66129H0V9.27419H10.9274L3.3871 16.9355H4.1129L11.6935 9.27419V16.9355H13.3065V9.35484L21.0887 16.9355H21.8145L14.1129 9.27419H25V7.66129Z" fill="#E51D35"/>
<path d="M13.3063 14.5161H11.6934V16.9355H13.3063V14.5161Z" fill="#AF0026"/>
<path d="M5.76624 14.5161L3.38721 16.9355H4.11301L6.53237 14.5161H5.76624Z" fill="#AF0026"/>
<path d="M18.6289 14.5161L21.0886 16.9355H21.8144L19.3547 14.5161H18.6289Z" fill="#AF0026"/>
<path d="M14.0323 7.66129L21.8146 0H21.0081L13.3065 7.66129V0H11.6936V7.66129L3.91135 0H3.18555L7.62103 4.39516L17.2985 12.5403L14.113 9.27419H25.0001V7.66129H13.3065H14.0323Z" fill="#AF0026"/>
</svg>
