<svg width="37" height="31" viewBox="0 0 37 31" fill="none" xmlns="http://www.w3.org/2000/svg">
<g filter="url(#filter0_d_905_21)">
<path d="M24.4593 4.95726C23.309 3.69513 21.7305 3 20.0144 3C18.7317 3 17.5569 3.41025 16.5227 4.21926C16.0009 4.62762 15.528 5.12723 15.1111 5.71036C14.6944 5.1274 14.2214 4.62762 13.6993 4.21926C12.6653 3.41025 11.4905 3 10.2078 3C8.49168 3 6.91307 3.69513 5.76273 4.95726C4.62612 6.20464 4 7.90876 4 9.75591C4 11.6571 4.70038 13.3974 6.20405 15.2329C7.54919 16.8747 9.48248 18.5415 11.7213 20.4714C12.4858 21.1306 13.3523 21.8776 14.252 22.6734C14.4897 22.8841 14.7947 23 15.1111 23C15.4273 23 15.7325 22.8841 15.9698 22.6738C16.8696 21.8778 17.7366 21.1304 18.5014 20.4709C20.7399 18.5413 22.6732 16.8747 24.0183 15.2327C25.522 13.3974 26.2222 11.6571 26.2222 9.75574C26.2222 7.90876 25.5961 6.20464 24.4593 4.95726Z" fill="#8097CB"/>
</g>
<circle cx="29" cy="8" r="8" fill="#008DFE"/>
<path d="M27.94 11.043V12H22.407V11.252L25.542 8.227C25.9233 7.86033 26.18 7.545 26.312 7.281C26.444 7.00967 26.51 6.73833 26.51 6.467C26.51 6.06367 26.367 5.752 26.081 5.532C25.8023 5.30467 25.399 5.191 24.871 5.191C24.0203 5.191 23.364 5.46967 22.902 6.027L22.154 5.378C22.4547 5.01133 22.847 4.72533 23.331 4.52C23.8223 4.31467 24.3687 4.212 24.97 4.212C25.7767 4.212 26.4183 4.40633 26.895 4.795C27.3717 5.17633 27.61 5.697 27.61 6.357C27.61 6.76767 27.522 7.15633 27.346 7.523C27.17 7.88967 26.8363 8.30767 26.345 8.777L23.991 11.043H27.94ZM35.8893 10.108H34.4263V12H33.3593V10.108H29.0803V9.338L33.0183 4.3H34.2063L30.4333 9.162H33.3923V7.49H34.4263V9.162H35.8893V10.108Z" fill="white"/>
<defs>
<filter id="filter0_d_905_21" x="0" y="3" width="30.2222" height="28" filterUnits="userSpaceOnUse" color-interpolation-filters="sRGB">
<feFlood flood-opacity="0" result="BackgroundImageFix"/>
<feColorMatrix in="SourceAlpha" type="matrix" values="0 0 0 0 0 0 0 0 0 0 0 0 0 0 0 0 0 0 127 0" result="hardAlpha"/>
<feOffset dy="4"/>
<feGaussianBlur stdDeviation="2"/>
<feColorMatrix type="matrix" values="0 0 0 0 0.0823529 0 0 0 0 0.0705882 0 0 0 0 0.247059 0 0 0 0.1 0"/>
<feBlend mode="normal" in2="BackgroundImageFix" result="effect1_dropShadow_905_21"/>
<feBlend mode="normal" in="SourceGraphic" in2="effect1_dropShadow_905_21" result="shape"/>
</filter>
</defs>
</svg>
