<svg width="488" height="460" viewBox="0 0 488 460" fill="none" xmlns="http://www.w3.org/2000/svg">
<path d="M187.893 47.7776C165.393 54.1776 144.193 65.3776 126.093 80.1776C110.493 92.9776 97.0933 108.778 89.0933 127.278C83.6933 139.878 80.7933 153.378 78.5933 166.978C73.5933 197.378 71.3934 228.978 79.9934 258.578C91.9934 299.878 124.893 333.578 164.393 350.578C203.893 367.578 249.093 368.578 290.693 357.878C313.493 351.978 335.893 342.378 353.393 326.578C378.193 304.178 392.293 270.478 420.393 252.478C443.993 237.378 473.993 235.678 497.993 221.378C526.293 204.478 542.693 170.778 542.193 137.678C541.593 104.578 525.393 72.8776 501.493 50.1776C477.593 27.3776 446.493 13.1776 414.293 5.87757C373.793 -3.32243 330.993 -1.62244 291.293 10.2776C274.793 15.2776 263.093 24.7776 247.793 31.6776C228.593 39.9776 207.593 42.1776 187.893 47.7776Z" fill="#EBF6FF"/>
<path d="M177.894 168.478H89.2936C87.4936 168.478 85.9937 166.978 85.9937 165.178C85.9937 163.378 87.4936 161.878 89.2936 161.878H177.894C179.694 161.878 181.194 163.378 181.194 165.178C181.194 166.978 179.694 168.478 177.894 168.478Z" fill="#CFDAEE"/>
<path d="M112.994 117.978H102.594V161.478H112.994V117.978Z" fill="url(#paint0_linear_341_472)"/>
<path d="M112.894 154.778H102.594V158.278H112.894V154.778Z" fill="#F7E4DD"/>
<path d="M110.794 124.378H104.594V126.478H110.794V124.378Z" fill="#F7E4DD"/>
<path d="M137.294 117.978H126.894V161.478H137.294V117.978Z" fill="url(#paint1_linear_341_472)"/>
<path d="M137.194 154.778H126.894V158.278H137.194V154.778Z" fill="#FCF8E3"/>
<path d="M135.094 124.378H128.894V126.478H135.094V124.378Z" fill="#FCF8E3"/>
<path d="M124.894 117.978H114.494V161.478H124.894V117.978Z" fill="url(#paint2_linear_341_472)"/>
<path d="M121.994 124.178H117.394V151.378H121.994V124.178Z" fill="#EAEFF8"/>
<path d="M149.593 117.978H139.193V161.478H149.593V117.978Z" fill="url(#paint3_linear_341_472)"/>
<path d="M147.393 124.378H141.193V126.478H147.393V124.378Z" fill="#F7E4DD"/>
<path d="M147.393 155.378H141.193V158.278H147.393V155.378Z" fill="#F7E4DD"/>
<path d="M161.494 117.978H151.094V161.478H161.494V117.978Z" fill="url(#paint4_linear_341_472)"/>
<path d="M158.594 126.778H153.994V153.978H158.594V126.778Z" fill="#EAEFF8"/>
<path d="M179.793 63.6776H116.693C112.293 63.6776 108.693 67.2776 108.693 71.6776V96.1776C108.693 100.578 112.293 104.178 116.693 104.178H158.493L174.093 126.478L169.993 104.178H179.893C184.293 104.178 187.893 100.578 187.893 96.1776V71.6776C187.793 67.2776 184.193 63.6776 179.793 63.6776Z" fill="url(#paint5_linear_341_472)"/>
<path d="M117.993 96.3776H161.793C163.193 96.3776 164.193 95.2776 164.193 93.9776C164.193 92.5776 163.093 91.5776 161.793 91.5776H117.993C116.593 91.5776 115.593 92.6776 115.593 93.9776C115.493 95.2776 116.593 96.3776 117.993 96.3776Z" fill="#D6DFF1"/>
<path d="M117.993 85.8776H176.793C178.193 85.8776 179.193 84.7776 179.193 83.4776C179.193 82.0776 178.093 81.0776 176.793 81.0776H117.993C116.593 81.0776 115.593 82.1776 115.593 83.4776C115.493 84.7776 116.593 85.8776 117.993 85.8776Z" fill="#D6DFF1"/>
<path d="M117.993 75.3776H176.793C178.193 75.3776 179.193 74.2776 179.193 72.9776C179.193 71.5776 178.093 70.5776 176.793 70.5776H117.993C116.593 70.5776 115.593 71.6776 115.593 72.9776C115.493 74.2776 116.593 75.3776 117.993 75.3776Z" fill="#D6DFF1"/>
<path d="M176.694 96.4776C178.185 96.4776 179.394 95.2688 179.394 93.7776C179.394 92.2864 178.185 91.0776 176.694 91.0776C175.202 91.0776 173.994 92.2864 173.994 93.7776C173.994 95.2688 175.202 96.4776 176.694 96.4776Z" fill="#D6DFF1"/>
<path d="M275.893 99.2776C292.02 99.2776 305.093 86.1595 305.093 69.9776C305.093 53.7957 292.02 40.6776 275.893 40.6776C259.767 40.6776 246.693 53.7957 246.693 69.9776C246.693 86.1595 259.767 99.2776 275.893 99.2776Z" fill="url(#paint6_linear_341_472)"/>
<path d="M275.894 91.8776C287.933 91.8776 297.694 82.0726 297.694 69.9776C297.694 57.8826 287.933 48.0776 275.894 48.0776C263.854 48.0776 254.094 57.8826 254.094 69.9776C254.094 82.0726 263.854 91.8776 275.894 91.8776Z" fill="white"/>
<path d="M282.793 57.6776C283.793 58.2776 284.993 57.8776 285.493 56.8776C286.093 55.8776 285.693 54.6776 284.693 54.1776C283.693 53.5776 282.493 53.9776 281.993 54.9776C281.593 55.6776 281.693 56.3776 281.993 56.9776C282.293 57.2776 282.493 57.4776 282.793 57.6776Z" fill="#D6DFF1"/>
<path d="M288.194 63.4776C289.194 64.0776 290.394 63.6776 290.894 62.6776C291.494 61.6776 291.094 60.4776 290.094 59.9776C289.094 59.3776 287.894 59.7776 287.394 60.7776C286.994 61.4776 287.094 62.1776 287.394 62.7776C287.594 62.9776 287.894 63.2776 288.194 63.4776Z" fill="#D6DFF1"/>
<path d="M275.793 55.8776C276.893 55.8776 277.793 54.9776 277.793 53.8776C277.793 52.7776 276.893 51.8776 275.793 51.8776C274.693 51.8776 273.793 52.7776 273.793 53.8776C273.793 54.2776 273.894 54.5776 274.094 54.8776C274.394 55.4776 275.093 55.8776 275.793 55.8776Z" fill="#D6DFF1"/>
<path d="M276.094 84.0776C274.994 84.0776 274.094 84.9776 274.094 86.0776C274.094 86.4776 274.194 86.7776 274.394 87.0776C274.694 87.6776 275.394 88.0776 276.094 88.0776C277.194 88.0776 278.094 87.1776 278.094 86.0776C278.094 84.9776 277.194 84.0776 276.094 84.0776Z" fill="#D6DFF1"/>
<path d="M283.094 82.0776C282.194 82.6776 281.794 83.8776 282.394 84.7776C282.994 85.7776 284.194 86.0776 285.094 85.4776C285.994 84.8776 286.394 83.6776 285.794 82.7776C285.194 81.8776 283.994 81.5776 283.094 82.0776Z" fill="#D6DFF1"/>
<path d="M290.893 76.1776C289.893 75.6776 288.694 75.9776 288.194 76.9776C287.794 77.6776 287.894 78.3776 288.194 78.9776C288.394 79.2776 288.593 79.5776 288.893 79.6776C289.893 80.2776 291.094 79.8776 291.594 78.8776C292.194 77.9776 291.893 76.6776 290.893 76.1776Z" fill="#D6DFF1"/>
<path d="M261.793 70.1776C261.793 69.0776 260.893 68.1776 259.793 68.1776C258.693 68.1776 257.793 69.0776 257.793 70.1776C257.793 70.5776 257.894 70.8776 258.094 71.1776C258.394 71.7776 259.093 72.1776 259.793 72.1776C260.993 72.1776 261.893 71.2776 261.793 70.1776Z" fill="#D6DFF1"/>
<path d="M261.094 76.4776C260.194 77.0776 259.794 78.2776 260.394 79.1776C260.994 80.0776 262.194 80.4776 263.094 79.8776C263.994 79.2776 264.294 78.0776 263.794 77.0776C263.194 76.1776 261.994 75.8776 261.094 76.4776Z" fill="#D6DFF1"/>
<path d="M289.994 69.8776C289.994 70.2776 290.094 70.5776 290.294 70.8776C290.594 71.4776 291.294 71.8776 291.994 71.8776C293.094 71.8776 293.994 70.9776 293.994 69.8776C293.994 68.7776 293.094 67.8776 291.994 67.8776C290.894 67.8776 289.994 68.7776 289.994 69.8776Z" fill="#D6DFF1"/>
<path d="M260.894 63.7776C261.894 64.3776 263.094 63.9776 263.594 62.9776C264.094 61.9776 263.794 60.7776 262.794 60.2776C261.794 59.7776 260.594 60.0776 260.094 61.0776C259.794 61.6776 259.794 62.4776 260.094 63.0776C260.394 63.3776 260.594 63.6776 260.894 63.7776Z" fill="#D6DFF1"/>
<path d="M268.693 57.8776C268.693 57.8776 268.793 57.8776 268.693 57.8776C268.793 57.8776 268.793 57.8776 268.693 57.8776C268.793 57.7776 268.793 57.7776 268.693 57.8776C269.693 57.2776 269.993 56.0776 269.493 55.0776C268.893 54.0776 267.693 53.7776 266.793 54.3776C265.893 54.9776 265.493 56.1776 266.093 57.0776C266.593 58.0776 267.793 58.3776 268.693 57.8776Z" fill="#D6DFF1"/>
<path d="M268.994 82.2776C267.994 81.6776 266.794 82.0776 266.294 83.0776C265.894 83.7776 265.994 84.4776 266.294 85.0776C266.494 85.3776 266.694 85.6776 266.994 85.7776C267.994 86.2776 269.194 85.9776 269.694 84.9776C270.294 83.9776 269.994 82.7776 268.994 82.2776Z" fill="#D6DFF1"/>
<path d="M275.793 52.0776L275.893 70.8776L286.494 63.6776" stroke="#7492C9" stroke-width="0.9392" stroke-miterlimit="10"/>
<path d="M195.294 177.978C206.894 173.678 209.994 175.378 211.394 171.478C211.394 171.378 211.494 171.378 211.494 171.278C211.594 170.978 211.694 170.778 211.694 170.478L212.494 165.578C213.794 159.778 215.494 144.778 215.494 144.778L223.694 147.678L235.494 137.778C235.494 137.778 237.794 164.178 238.594 169.278C238.694 169.678 238.794 169.978 238.894 170.378C238.894 170.478 238.994 170.578 238.994 170.578C239.194 170.878 239.294 171.178 239.494 171.478C241.894 174.678 247.994 176.878 255.294 179.978C253.194 183.978 251.894 188.178 251.094 192.778C250.294 196.878 249.294 200.978 248.694 205.178C238.794 199.078 226.494 201.178 215.994 201.078C207.394 200.978 199.494 201.978 194.794 202.678C194.694 194.378 194.194 186.178 195.294 177.978Z" fill="url(#paint7_linear_341_472)"/>
<path opacity="0.3" d="M220.994 160.078C218.294 160.578 215.794 161.078 213.494 160.278C214.894 151.478 217.594 139.678 217.594 139.678L235.694 140.678C234.894 150.678 228.994 158.578 220.994 160.078Z" fill="url(#paint8_linear_341_472)"/>
<path d="M244.793 175.478C240.793 180.078 231.894 183.378 221.594 183.378C211.694 183.378 203.194 180.378 198.994 176.078C197.594 176.478 196.093 176.978 194.293 177.678C193.193 185.878 210.493 231.778 210.694 240.078C215.493 239.378 224.094 261.478 224.094 261.478C224.094 261.478 241.094 220.478 247.694 204.878C248.293 200.678 249.394 196.578 250.094 192.478C250.894 187.878 252.193 183.678 254.293 179.678C250.793 178.078 247.493 176.778 244.793 175.478Z" fill="#EEBF3B"/>
<path d="M236.893 199.278C237.832 199.278 238.593 198.516 238.593 197.578C238.593 196.639 237.832 195.878 236.893 195.878C235.954 195.878 235.193 196.639 235.193 197.578C235.193 198.516 235.954 199.278 236.893 199.278Z" fill="#F8ECD6"/>
<path d="M224.893 191.578C225.832 191.578 226.593 190.816 226.593 189.878C226.593 188.939 225.832 188.178 224.893 188.178C223.954 188.178 223.193 188.939 223.193 189.878C223.193 190.816 223.954 191.578 224.893 191.578Z" fill="#F8ECD6"/>
<path d="M221.694 205.678C222.632 205.678 223.394 204.916 223.394 203.978C223.394 203.039 222.632 202.278 221.694 202.278C220.755 202.278 219.994 203.039 219.994 203.978C219.994 204.916 220.755 205.678 221.694 205.678Z" fill="#F8ECD6"/>
<path d="M216.194 217.578C217.132 217.578 217.894 216.816 217.894 215.878C217.894 214.939 217.132 214.178 216.194 214.178C215.255 214.178 214.494 214.939 214.494 215.878C214.494 216.816 215.255 217.578 216.194 217.578Z" fill="#F8ECD6"/>
<path d="M225.294 241.478C226.233 241.478 226.994 240.717 226.994 239.778C226.994 238.839 226.233 238.078 225.294 238.078C224.355 238.078 223.594 238.839 223.594 239.778C223.594 240.717 224.355 241.478 225.294 241.478Z" fill="#F8ECD6"/>
<path d="M209.494 197.778C210.432 197.778 211.193 197.016 211.193 196.078C211.193 195.139 210.432 194.378 209.494 194.378C208.555 194.378 207.793 195.139 207.793 196.078C207.793 197.016 208.555 197.778 209.494 197.778Z" fill="#F8ECD6"/>
<path d="M227.594 220.678C228.533 220.678 229.294 219.916 229.294 218.978C229.294 218.039 228.533 217.278 227.594 217.278C226.655 217.278 225.894 218.039 225.894 218.978C225.894 219.916 226.655 220.678 227.594 220.678Z" fill="#F8ECD6"/>
<path d="M220.694 232.078C221.632 232.078 222.394 231.316 222.394 230.378C222.394 229.439 221.632 228.678 220.694 228.678C219.755 228.678 218.994 229.439 218.994 230.378C218.994 231.316 219.755 232.078 220.694 232.078Z" fill="#F8ECD6"/>
<path d="M234.094 211.078C235.033 211.078 235.794 210.316 235.794 209.378C235.794 208.439 235.033 207.678 234.094 207.678C233.155 207.678 232.394 208.439 232.394 209.378C232.394 210.316 233.155 211.078 234.094 211.078Z" fill="#F8ECD6"/>
<path d="M165.294 198.378C167.294 194.978 168.494 192.378 171.694 190.078C173.094 189.078 175.794 188.378 176.994 186.978C178.194 185.678 180.194 186.478 181.694 185.578C185.194 183.278 188.594 181.078 192.294 179.078C192.694 178.878 192.994 178.678 193.394 178.478C193.194 179.778 194.794 180.778 195.394 181.678C196.094 182.978 196.094 184.478 196.694 185.878C197.494 187.678 198.494 189.378 199.194 191.278C200.394 194.278 201.594 196.978 203.194 199.778C204.794 202.678 206.594 205.478 207.694 208.678C207.794 208.878 207.894 209.178 207.894 209.378C210.294 217.178 211.794 224.778 212.494 232.878C212.894 237.478 213.694 241.878 214.494 246.378C215.194 250.078 216.394 246.978 217.394 250.578C218.494 254.678 224.094 261.478 223.894 260.678C223.994 261.378 224.194 260.878 225.994 258.778C230.794 253.178 231.394 248.178 233.194 240.978C234.094 237.478 234.794 233.978 235.794 230.478C236.894 226.678 238.894 223.078 240.094 219.178C242.494 210.878 247.094 203.378 249.694 195.078C250.594 192.178 250.394 189.278 252.094 186.778C252.894 185.678 253.994 184.878 254.894 183.878C255.294 183.378 255.494 182.878 255.894 182.378C256.194 181.878 256.794 181.578 257.094 181.078C266.994 185.478 278.194 188.378 282.094 199.578C289.994 222.078 282.394 250.078 278.494 272.578C277.694 277.178 277.694 284.178 277.194 288.978C277.094 289.778 260.094 291.378 259.994 292.178L164.894 291.678C164.894 288.178 165.394 282.578 164.894 279.078C163.294 268.178 165.494 256.878 164.194 245.878C163.594 241.178 163.894 236.378 162.894 231.678C162.194 228.478 161.594 225.778 161.594 222.478C161.094 214.078 160.794 205.978 165.294 198.378Z" fill="#4E6BB1"/>
<path d="M254.693 180.078C254.393 179.978 254.293 179.778 254.193 179.678C254.293 179.778 254.393 179.778 254.493 179.878C254.693 179.978 254.993 180.078 255.193 180.178C254.993 180.178 254.793 180.078 254.693 180.078Z" fill="#4E6BB1"/>
<path d="M188.793 255.078C193.493 263.378 205.394 266.478 213.494 261.578" stroke="#8097CB" stroke-width="0.6622" stroke-miterlimit="10"/>
<path d="M234.293 260.378C237.793 262.778 242.193 263.878 246.393 263.378C250.593 262.878 254.593 260.778 257.393 257.578C257.993 256.878 259.194 256.078 259.494 255.278" stroke="#8097CB" stroke-width="0.6622" stroke-miterlimit="10"/>
<path d="M194.094 177.978C194.094 177.978 197.494 185.278 205.194 206.478C212.894 227.678 224.094 261.278 224.094 261.278C224.094 261.278 205.194 240.478 185.294 226.078C179.994 222.178 193.194 215.178 193.194 215.178C193.194 215.178 179.494 213.878 173.794 206.878C169.994 202.178 169.094 192.578 169.094 192.578C169.094 192.578 171.894 187.678 181.294 183.978C188.294 181.278 194.094 177.978 194.094 177.978Z" fill="url(#paint9_linear_341_472)"/>
<path d="M195.794 176.978C195.794 176.978 198.394 182.878 206.094 203.978C213.794 225.178 224.094 261.378 224.094 261.378C224.094 261.378 206.094 238.078 186.194 223.678C180.894 219.778 194.094 212.778 194.094 212.778C194.094 212.778 180.394 211.478 174.694 204.478C170.894 199.778 169.994 190.178 169.994 190.178C169.994 190.178 172.794 185.278 182.194 181.578C189.194 178.878 195.794 176.978 195.794 176.978Z" fill="#8097CB"/>
<path d="M254.394 179.978C254.394 179.978 250.994 187.278 243.294 208.478C235.594 229.678 224.094 261.378 224.094 261.378C224.094 261.378 243.194 242.578 263.094 228.178C268.394 224.278 255.194 217.278 255.194 217.278C255.194 217.278 268.894 215.978 274.594 208.978C278.394 204.278 279.294 194.678 279.294 194.678C279.294 194.678 276.494 189.778 267.094 186.078C260.194 183.178 254.394 179.978 254.394 179.978Z" fill="url(#paint10_linear_341_472)"/>
<path d="M252.794 178.578C252.794 178.578 249.294 185.578 241.694 206.778C234.094 227.978 224.094 261.278 224.094 261.278C224.094 261.278 241.694 240.778 261.594 226.478C266.894 222.578 253.694 215.578 253.694 215.578C253.694 215.578 267.394 214.278 273.094 207.278C276.894 202.578 277.794 192.978 277.794 192.978C277.794 192.978 274.694 187.278 265.294 183.678C258.194 180.778 252.794 178.578 252.794 178.578Z" fill="#8097CB"/>
<path d="M312.093 186.278C313.293 186.378 313.893 184.378 314.093 183.378C314.293 182.378 314.493 181.478 314.893 180.578C315.393 179.678 316.193 179.278 316.893 178.678C318.693 177.078 321.093 175.978 322.693 174.078C323.693 172.878 325.693 172.578 326.993 171.778C327.493 171.478 327.993 171.178 328.493 170.878C328.993 170.578 329.493 170.478 330.093 170.378C330.593 170.278 330.993 170.578 331.493 170.678C332.493 170.878 333.293 170.378 334.193 170.078C334.793 169.878 335.293 169.778 335.893 169.578C336.993 169.178 337.893 168.778 339.193 168.678C340.393 168.578 341.293 167.878 342.293 167.278C342.993 166.878 343.893 166.478 344.593 165.978C343.893 165.878 343.393 165.578 342.693 165.678C341.893 165.778 341.093 165.878 340.393 166.078C340.093 166.178 339.793 166.378 339.493 166.478C339.193 166.578 338.893 166.578 338.593 166.578C338.093 166.578 337.493 166.678 336.993 166.678C336.193 166.778 335.393 167.178 334.493 167.078C334.993 166.678 335.493 166.278 336.093 165.878C339.593 163.678 343.493 161.978 347.293 160.278C348.193 159.878 349.093 159.778 349.993 159.478C348.693 158.878 347.393 158.678 346.093 158.778C338.693 159.478 328.193 171.278 343.993 154.178C347.593 150.378 350.193 150.378 346.393 150.778C345.293 150.878 344.193 151.478 343.293 152.078C341.993 152.878 340.793 153.778 339.593 154.778C337.493 156.478 335.393 158.278 333.193 159.978C332.893 160.178 332.393 160.678 331.993 160.478C331.393 160.078 332.293 157.778 332.493 157.378C332.893 156.378 332.993 155.278 333.393 154.278C332.993 154.078 332.493 154.178 332.093 154.078C331.593 153.978 331.093 153.778 330.593 153.478C329.593 153.078 328.593 152.678 327.593 152.278C326.693 151.978 325.793 151.678 324.893 151.378C324.493 151.278 324.193 151.178 323.793 151.078C323.393 150.978 322.893 150.678 322.393 150.678C322.193 151.378 322.393 152.778 322.793 153.278C323.293 153.978 324.193 154.678 324.893 155.278C325.693 155.878 326.293 156.278 327.193 156.578C327.393 156.678 327.993 156.778 328.093 156.978C328.193 157.278 327.793 157.678 327.593 157.978C327.393 158.378 327.393 158.678 327.193 159.078C327.093 159.378 326.793 159.678 326.593 159.978C326.193 160.678 325.693 161.278 324.993 161.678C323.393 162.478 321.093 162.578 319.793 161.178C319.093 160.378 318.693 159.178 318.993 158.078C319.293 157.078 320.093 156.678 320.693 155.878C321.193 155.178 321.993 154.378 321.893 153.478C321.793 152.878 321.693 152.178 321.693 151.578C321.693 151.278 321.793 150.478 321.493 150.278C320.993 149.978 319.993 150.978 319.693 151.278C318.593 152.678 317.393 154.078 316.193 155.278C315.393 156.078 315.093 157.078 314.693 158.178C314.293 159.278 313.793 160.278 313.593 161.378C313.493 162.078 313.693 162.978 313.393 163.678C313.193 164.078 312.893 164.378 312.593 164.678C312.193 165.178 311.793 165.778 311.493 166.378C310.893 167.478 310.293 168.478 309.793 169.578C308.993 171.278 308.393 172.978 307.393 174.478C306.793 175.478 306.293 176.478 305.693 177.478C305.293 178.178 300.893 189.578 301.993 190.278C302.793 190.878 306.693 198.578 307.093 190.278C307.193 188.578 309.893 184.678 311.193 185.578C311.593 186.278 311.893 186.278 312.093 186.278Z" fill="url(#paint11_linear_341_472)"/>
<path d="M332.694 149.378L332.294 148.978L314.394 166.978L314.094 166.678L309.394 169.278L308.494 168.378L311.094 163.678L310.794 163.378L328.294 145.878L328.794 145.478L328.594 145.178L330.494 143.378" fill="#9CB3DB"/>
<path d="M313.393 165.878L314.393 166.978L331.893 149.478L328.293 145.878L310.793 163.378L311.893 164.378L313.393 165.878Z" fill="#EEBF3B"/>
<path d="M308.493 169.678L309.393 169.378L308.393 168.378L308.093 169.278C307.993 169.578 308.193 169.778 308.493 169.678Z" fill="#EEBF3B"/>
<path d="M313.094 167.778L313.694 167.278L310.494 164.178L309.894 164.778L308.894 167.478L310.294 168.878L313.094 167.778Z" fill="#15123F"/>
<path d="M332.294 148.978L332.694 149.378C333.294 148.778 333.994 148.078 334.594 147.378L334.794 147.578L334.994 147.778L335.194 148.078L328.194 155.078C327.894 155.378 327.894 155.778 328.194 155.978L328.294 156.078C328.594 156.378 328.994 156.378 329.194 156.078L339.394 145.778C339.694 145.478 339.694 145.078 339.394 144.878L339.294 144.778C338.994 144.478 338.594 144.478 338.394 144.778L336.994 146.178L336.694 145.878L336.494 145.678L336.294 145.478C337.294 144.278 338.394 143.078 339.394 141.878C340.394 140.778 341.294 139.578 342.094 138.478C343.794 136.278 345.194 134.378 345.894 132.978L344.794 131.878C343.394 132.578 341.394 133.978 339.294 135.678C337.794 136.878 336.094 138.278 334.494 139.678C332.294 141.578 330.194 143.478 328.494 145.178L328.694 145.378L332.294 148.978Z" fill="#15123F"/>
<path d="M332.393 157.678C332.793 156.678 332.893 155.578 333.293 154.578C332.893 154.378 332.393 154.478 331.993 154.378C331.493 154.278 330.993 154.078 330.493 153.778C329.493 153.378 328.493 152.978 327.493 152.578C326.593 152.278 325.693 151.978 324.793 151.678C324.393 151.578 324.093 151.478 323.693 151.378C323.293 151.278 322.793 150.978 322.293 150.978C322.093 151.678 322.293 153.078 322.693 153.578C323.193 154.278 324.093 154.978 324.793 155.578C325.593 156.178 326.193 156.578 327.093 156.878C327.293 156.978 327.893 157.078 327.993 157.278C328.093 157.578 327.693 157.978 327.493 158.278C327.293 158.678 327.293 158.978 327.093 159.378C326.993 159.678 326.693 159.978 326.493 160.278C326.093 160.878 325.593 161.578 324.893 161.978L331.793 160.778C331.293 160.378 332.293 158.078 332.393 157.678Z" fill="url(#paint12_linear_341_472)"/>
<path d="M270.793 248.178C277.693 229.678 305.893 177.578 305.893 177.578L315.693 181.878C315.693 181.878 310.393 268.678 277.693 288.278C257.093 300.578 267.193 257.678 270.793 248.178Z" fill="url(#paint13_linear_341_472)"/>
<path d="M317.393 178.778L306.494 176.078L294.293 183.278L316.193 193.678L317.393 178.778Z" fill="#8097CB"/>
<path d="M314.694 192.078L301.494 186.478L299.594 190.278L314.294 194.978L314.694 192.078Z" fill="#3D57A5"/>
<path d="M201.994 138.778C207.24 138.778 211.494 133.315 211.494 126.578C211.494 119.84 207.24 114.378 201.994 114.378C196.747 114.378 192.494 119.84 192.494 126.578C192.494 133.315 196.747 138.778 201.994 138.778Z" fill="#CFDAEE"/>
<path d="M203.694 134.478C207.615 134.478 210.794 130.269 210.794 125.078C210.794 119.886 207.615 115.678 203.694 115.678C199.773 115.678 196.594 119.886 196.594 125.078C196.594 130.269 199.773 134.478 203.694 134.478Z" fill="#9CB3DB"/>
<path d="M200.293 127.978C200.293 148.178 207.393 156.778 217.793 156.678C228.193 156.578 237.594 145.378 238.094 131.178C238.694 117.078 231.894 103.278 217.494 103.478C201.894 103.678 200.393 113.878 200.293 127.978Z" fill="url(#paint14_linear_341_472)"/>
<path d="M200.794 133.478C200.694 133.478 200.594 133.478 200.494 133.478C200.594 136.778 201.494 139.878 201.894 142.478C204.194 142.278 205.494 139.978 205.394 137.578C205.294 135.178 203.294 133.378 200.794 133.478Z" fill="#E06F52"/>
<path d="M224.687 142.166C227.116 142.14 229.065 140.149 229.039 137.719C229.013 135.289 227.022 133.341 224.592 133.367C222.162 133.393 220.214 135.384 220.24 137.814C220.266 140.243 222.257 142.192 224.687 142.166Z" fill="#E06F52"/>
<path d="M212.393 128.978C212.693 131.278 211.193 133.378 210.793 135.578C210.693 135.978 210.893 136.778 211.993 137.078C212.993 137.278 213.993 137.378 214.993 137.378" stroke="#15123F" stroke-width="0.5" stroke-miterlimit="10" stroke-linecap="round" stroke-linejoin="round"/>
<path d="M222.594 126.678C222.794 127.178 222.894 127.678 222.894 128.178C222.894 128.678 222.894 129.278 222.594 129.778C222.294 130.278 221.694 130.478 221.194 130.278C220.694 130.078 220.594 129.478 220.494 128.878C220.394 128.178 220.394 127.478 220.494 126.778C220.594 126.278 220.894 125.778 221.494 125.778C222.194 125.678 222.494 126.278 222.594 126.678Z" fill="#15123F"/>
<path d="M222.994 131.078C222.494 131.478 221.794 131.578 221.194 131.378C220.994 131.278 220.694 131.178 220.594 130.978" stroke="#15123F" stroke-width="0.3311" stroke-miterlimit="10" stroke-linecap="round" stroke-linejoin="round"/>
<path d="M224.094 122.178C223.194 122.078 222.294 122.078 221.394 122.178C220.294 122.278 219.194 122.578 218.094 122.178C217.794 122.078 217.394 121.778 217.394 121.478C217.394 121.178 217.694 120.878 218.094 120.778C219.494 120.078 221.094 120.178 222.694 120.278C223.494 120.378 224.694 120.478 225.294 121.078C225.994 121.878 224.794 122.278 224.094 122.178Z" fill="#15123F"/>
<path d="M225.693 120.978C225.893 121.078 226.093 121.278 226.093 121.578C226.093 121.878 225.993 122.078 225.793 122.178" stroke="#15123F" stroke-width="0.3311" stroke-miterlimit="10" stroke-linecap="round" stroke-linejoin="round"/>
<path d="M205.193 127.078C205.393 127.578 205.493 128.078 205.493 128.578C205.493 129.078 205.493 129.678 205.293 130.178C204.993 130.578 204.493 130.878 204.093 130.678C203.693 130.478 203.493 129.778 203.493 129.278C203.393 128.578 203.393 127.878 203.493 127.178C203.493 126.678 203.893 126.178 204.393 126.178C204.793 125.978 205.093 126.678 205.193 127.078Z" fill="#15123F"/>
<path d="M206.194 130.378C206.094 130.978 205.594 131.578 205.094 131.878C204.894 131.978 204.594 132.078 204.394 131.978" stroke="#15123F" stroke-width="0.3311" stroke-miterlimit="10" stroke-linecap="round" stroke-linejoin="round"/>
<path d="M208.893 122.178C208.193 122.478 207.393 122.278 206.593 122.278C205.293 122.278 204.093 122.678 202.793 122.578C202.593 122.578 202.393 122.578 202.293 122.478C202.093 122.378 201.993 122.178 202.093 121.978C202.093 121.878 202.193 121.778 202.293 121.778C203.793 120.778 205.593 120.478 207.293 120.478C207.793 120.478 208.593 120.278 209.093 120.478C209.893 121.078 209.593 121.878 208.893 122.178Z" fill="#15123F"/>
<path d="M201.593 121.978C201.393 122.378 201.493 122.878 201.793 123.178" stroke="#15123F" stroke-width="0.3311" stroke-miterlimit="10" stroke-linecap="round" stroke-linejoin="round"/>
<path d="M219.094 142.278C219.094 142.278 216.694 143.578 214.494 143.778C212.194 143.978 209.494 142.778 209.494 142.778C209.494 142.778 210.194 146.578 211.994 147.978C213.394 149.078 216.294 148.878 217.194 147.878C219.094 145.678 219.094 142.278 219.094 142.278Z" fill="white"/>
<path d="M200.693 128.878C200.593 127.378 199.393 122.478 199.393 122.478C204.893 118.578 207.893 107.978 207.893 107.978C217.693 121.978 236.494 121.478 236.494 121.478C236.494 121.478 237.793 129.378 237.593 133.578C238.193 133.978 240.393 130.378 241.793 128.578C244.793 124.978 249.493 115.178 244.393 103.178C237.593 86.9776 208.893 84.9776 202.093 99.6776C188.893 104.978 195.193 124.178 199.393 127.578C200.393 127.178 200.093 128.678 200.693 128.878Z" fill="#15123F"/>
<path d="M202.294 117.878C202.294 117.878 201.894 118.078 201.294 118.478C200.994 118.678 200.594 118.978 200.294 119.278C199.994 119.578 199.594 119.978 199.594 120.378C199.594 120.478 199.594 120.578 199.594 120.678V120.778C199.594 120.778 199.594 120.878 199.594 120.678V120.978C199.594 121.178 199.694 121.178 199.694 121.278C199.694 121.378 199.794 121.478 199.894 121.578C200.194 121.978 200.594 122.478 201.194 123.178C201.694 123.778 202.394 124.578 202.794 125.878C202.894 126.178 202.894 126.578 202.894 126.978C202.894 127.178 202.894 127.378 202.894 127.578L202.794 127.878V128.078C202.794 128.178 202.794 128.178 202.694 128.278L202.594 128.578C202.494 128.778 202.394 128.978 202.294 129.178L201.994 129.578L201.694 129.978C200.694 130.878 199.794 131.178 199.094 131.578C198.394 131.878 197.694 132.178 197.394 132.578C196.994 132.878 196.894 133.178 196.794 133.678C196.694 134.178 196.794 134.678 196.994 135.178C197.394 136.178 198.094 136.978 198.594 137.578C199.094 138.178 199.394 138.478 199.394 138.478C199.394 138.478 198.994 138.378 198.194 138.078C197.794 137.978 197.394 137.778 196.894 137.478C196.394 137.178 195.794 136.778 195.294 136.178C194.794 135.578 194.394 134.778 194.194 133.778C194.094 133.278 194.094 132.678 194.294 132.078C194.294 131.978 194.394 131.678 194.494 131.678L194.594 131.578C194.694 131.378 194.694 131.378 194.694 131.378C194.794 131.078 194.994 130.878 195.194 130.678C195.994 129.778 196.894 129.278 197.594 128.878C198.394 128.478 199.094 128.078 199.394 127.778L199.494 127.678C199.494 127.678 199.494 127.578 199.594 127.578V127.478V127.278V127.178C199.594 127.078 199.594 127.378 199.594 127.378V127.278C199.594 127.178 199.594 127.178 199.594 127.078C199.594 126.678 199.194 126.078 198.794 125.378C198.394 124.678 197.894 123.878 197.594 122.978C197.494 122.678 197.494 122.478 197.394 122.178C197.394 121.878 197.394 121.478 197.394 121.378L197.494 121.078C197.494 120.878 197.494 120.978 197.494 120.978V120.878L197.594 120.678C197.694 120.478 197.794 120.178 197.894 120.078C198.394 119.278 199.094 118.978 199.694 118.778C200.294 118.578 200.794 118.478 201.194 118.478C201.894 117.778 202.294 117.878 202.294 117.878Z" fill="#15123F"/>
<path d="M246.093 128.378C249.993 131.378 258.493 138.578 262.393 141.578C264.493 143.178 266.693 144.878 268.093 147.078C269.493 149.378 270.093 152.378 268.693 154.678C267.893 156.178 266.393 157.078 264.993 157.978C262.593 159.578 259.993 160.978 258.093 163.178C256.193 165.378 254.893 168.378 255.693 171.178C256.493 174.278 259.393 176.278 261.493 178.678C265.893 183.878 266.493 191.578 264.093 198.078C261.693 204.478 256.793 209.678 251.393 213.678C244.393 218.878 235.493 222.578 226.893 220.878C222.393 219.978 217.693 216.878 217.193 212.278C216.693 206.878 221.793 202.878 226.193 199.878C226.793 199.478 227.393 199.078 227.693 198.378C228.393 196.678 226.493 195.078 224.993 193.978C218.593 188.978 218.193 177.878 224.193 172.378C227.293 169.478 231.493 168.278 235.493 166.778C239.493 165.278 243.493 163.178 245.593 159.478C247.693 155.778 246.693 150.078 242.693 148.678C242.493 148.778 239.793 146.478 239.493 144.578C239.293 143.378 238.993 142.678 238.793 141.478C238.593 140.378 238.793 138.878 239.193 137.878" fill="#15123F"/>
<path d="M250.093 137.178C252.793 139.178 256.193 145.478 258.593 147.878C259.593 148.878 260.493 149.878 260.693 151.278C261.093 153.878 258.593 155.978 256.393 157.478C252.893 159.878 249.393 162.678 247.293 166.478C245.293 170.278 244.993 175.278 247.693 178.678C248.893 180.278 250.693 181.278 252.193 182.578C253.693 183.878 255.093 185.578 255.093 187.578C255.193 189.578 253.293 191.678 251.393 191.078" stroke="#9CB3DB" stroke-width="0.3311" stroke-miterlimit="10"/>
<path d="M240.094 170.578C230.594 175.678 229.694 182.078 231.294 184.878C232.594 187.178 235.094 188.478 236.894 190.378C239.594 193.378 240.294 198.178 238.494 201.878C236.694 205.578 232.594 207.978 228.494 207.678" stroke="#9CB3DB" stroke-width="0.3311" stroke-miterlimit="10"/>
<path d="M244.693 121.078C244.693 121.078 244.593 120.878 244.493 120.478C244.393 120.078 244.093 119.478 243.793 118.778C243.493 118.078 243.093 117.278 242.593 116.278C242.093 115.378 241.393 114.378 240.693 113.378C239.993 112.378 238.993 111.378 237.993 110.378C236.993 109.378 235.793 108.378 234.593 107.378C233.393 106.378 231.993 105.478 230.593 104.678C229.193 103.778 227.693 102.978 226.193 102.278C225.493 101.978 224.593 101.578 223.893 101.278C223.493 101.078 222.993 100.878 222.693 100.778L221.593 100.378C220.893 100.178 220.093 99.9776 219.293 99.7776C218.493 99.5776 217.793 99.3776 216.993 99.2776C215.493 99.0776 213.993 98.8776 212.493 98.7776C211.093 98.6776 209.693 98.7776 208.393 98.7776C207.793 98.8776 207.093 98.8776 206.593 98.9776C205.993 99.0776 205.493 99.0776 204.893 99.1776C204.393 99.2776 203.893 99.3776 203.393 99.4776C202.993 99.5776 202.493 99.6776 202.193 99.7776C201.793 99.8776 201.493 99.9776 201.193 100.078C200.893 100.178 200.693 100.278 200.493 100.378C200.093 100.478 199.893 100.578 199.893 100.578L199.693 100.278C199.693 100.278 199.893 100.178 200.193 99.8776C200.393 99.7776 200.593 99.5776 200.793 99.4776C201.093 99.2776 201.393 99.1776 201.693 98.9776C201.993 98.7776 202.393 98.5776 202.893 98.3776C203.293 98.1776 203.793 97.9776 204.293 97.7776C205.293 97.3776 206.493 96.9776 207.893 96.6776C209.193 96.3776 210.693 96.1776 212.293 96.0776C213.893 95.9776 215.493 95.9776 217.193 96.1776C218.893 96.2776 220.593 96.6776 222.393 97.0776C223.293 97.3776 224.093 97.5776 224.993 97.9776C225.893 98.2776 226.693 98.6776 227.493 99.0776C230.793 100.678 233.793 102.678 236.393 104.978C238.993 107.278 240.993 109.778 242.293 112.178C243.593 114.578 244.293 116.778 244.593 118.378C244.793 119.178 244.893 119.778 244.893 120.178C244.893 120.578 244.993 120.778 244.993 120.778L244.693 121.078Z" fill="#CFDAEE"/>
<path d="M239.494 139.378C244.74 139.378 248.994 133.915 248.994 127.178C248.994 120.44 244.74 114.978 239.494 114.978C234.247 114.978 229.994 120.44 229.994 127.178C229.994 133.915 234.247 139.378 239.494 139.378Z" fill="#9CB3DB"/>
<path d="M241.094 135.078C245.015 135.078 248.194 130.869 248.194 125.678C248.194 120.486 245.015 116.278 241.094 116.278C237.172 116.278 233.994 120.486 233.994 125.678C233.994 130.869 237.172 135.078 241.094 135.078Z" fill="#CFDAEE"/>
<path d="M239.494 136.078C238.894 138.278 238.294 140.578 237.594 142.778C237.394 143.578 237.194 144.378 236.594 144.978C235.894 145.778 234.793 146.078 233.793 146.378C229.693 147.278 225.393 147.478 221.293 146.978" stroke="#15123F" stroke-width="0.9933" stroke-miterlimit="10"/>
<path d="M227.893 146.778V147.578C227.893 148.378 227.293 149.078 226.493 149.078L221.693 149.278C220.893 149.278 220.193 148.678 220.193 147.878V147.078C220.193 146.278 220.793 145.578 221.593 145.578L226.393 145.378C227.193 145.278 227.793 145.978 227.893 146.778Z" fill="#15123F"/>
<path d="M30.5936 206.678C30.5936 206.678 22.9935 192.678 19.1935 188.178C14.0935 182.078 4.89359 181.078 0.993587 190.878C-2.60641 199.878 4.19359 206.078 11.4936 207.478C18.6936 208.978 30.5936 206.678 30.5936 206.678Z" fill="url(#paint15_linear_341_472)"/>
<path d="M41.4934 203.178C41.4934 203.178 39.2933 186.978 40.1933 179.378C41.1933 171.778 47.9933 170.878 52.5933 173.078C57.0933 175.278 60.6933 180.178 58.3933 187.578C56.0933 194.978 41.4934 203.178 41.4934 203.178Z" fill="url(#paint16_linear_341_472)"/>
<path d="M37.8937 228.278C37.8937 228.278 26.5937 217.578 21.1937 214.978C15.7937 212.378 7.89365 214.178 6.89365 221.978C5.89365 229.678 8.89365 235.178 17.3937 236.278C25.9937 237.278 37.8937 228.278 37.8937 228.278Z" fill="url(#paint17_linear_341_472)"/>
<path d="M49.0938 222.678C49.0938 222.678 49.2937 210.978 51.3937 203.678C53.4937 196.478 59.4937 195.578 63.8937 198.878C68.2937 202.178 69.9937 209.178 66.5938 213.678C63.0938 218.178 49.0938 222.678 49.0938 222.678Z" fill="url(#paint18_linear_341_472)"/>
<path d="M31.2934 187.078C31.2934 187.078 23.6934 181.078 16.0934 172.178C8.39341 163.378 10.3934 146.978 23.1934 145.178C34.7934 143.578 39.6934 154.678 39.2934 163.478C38.8934 172.378 31.2934 187.078 31.2934 187.078Z" fill="url(#paint19_linear_341_472)"/>
<path d="M25.3936 155.178C25.3936 155.178 29.6936 202.078 58.3936 263.178" stroke="#15123F" stroke-width="0.3311" stroke-miterlimit="10" stroke-linecap="round" stroke-linejoin="round"/>
<path d="M8.19336 195.378C18.5934 201.378 37.6934 209.978 37.6934 209.978C37.6934 209.978 46.5934 193.678 49.4934 183.978" stroke="#15123F" stroke-width="0.3311" stroke-miterlimit="10" stroke-linecap="round" stroke-linejoin="round"/>
<path d="M15.7935 224.978C28.4935 227.078 44.1935 229.178 44.1935 229.178C44.1935 229.178 54.9935 215.178 60.6935 205.978" stroke="#15123F" stroke-width="0.3311" stroke-miterlimit="10" stroke-linecap="round" stroke-linejoin="round"/>
<path d="M60.6935 123.278C59.0935 123.178 57.5935 124.378 56.3935 125.578C47.9935 134.378 44.2935 146.478 42.1935 158.378C41.0935 164.578 40.3936 170.878 40.0936 177.278C39.4936 188.778 39.2935 200.378 41.1935 211.778C42.1935 217.478 42.6935 220.678 44.2935 226.178C45.4935 230.478 49.2936 238.378 55.0936 237.678C53.5936 226.778 52.2936 208.578 53.5936 182.978C54.8936 155.878 58.1935 135.478 60.6935 123.278Z" fill="url(#paint20_linear_341_472)"/>
<path d="M61.0937 231.578C65.2937 221.878 66.8937 211.378 68.2937 200.878C69.2937 193.278 70.1937 185.578 70.8937 177.978C71.6937 169.078 72.3937 160.178 71.5937 151.278C70.7937 142.378 69.6938 133.778 64.9938 126.178C64.3938 125.178 62.5937 123.878 61.3937 123.478C61.1937 123.378 60.8937 123.378 60.6937 123.378C58.1937 135.578 54.7938 155.978 53.4938 183.178C52.1938 208.778 53.5938 226.878 54.9938 237.878C55.0938 237.878 55.1937 237.878 55.3937 237.778C58.1937 237.178 59.8937 234.278 61.0937 231.578Z" fill="url(#paint21_linear_341_472)"/>
<path d="M60.7932 122.978C50.4932 162.978 50.4933 221.678 57.9933 267.778" stroke="#FDF8F5" stroke-width="0.3311" stroke-miterlimit="10"/>
<path d="M53.8936 177.578C59.1936 173.178 63.9936 168.278 68.1936 162.978" stroke="#FDF8F5" stroke-width="0.3311" stroke-miterlimit="10"/>
<path d="M40.9937 178.078C44.1937 184.178 48.3936 189.678 53.2936 194.478" stroke="#FDF8F5" stroke-width="0.3311" stroke-miterlimit="10"/>
<path d="M53.2935 207.978C54.8935 207.778 56.2935 206.678 57.6935 205.678C59.9935 203.878 62.2935 202.078 64.1935 199.878" stroke="#FDF8F5" stroke-width="0.3311" stroke-miterlimit="10"/>
<path d="M37.5938 251.978H59.3937C59.3937 251.978 83.7937 213.378 76.8937 199.078C76.8937 199.078 90.8937 167.078 81.6937 162.678C72.4937 158.278 60.9938 184.778 60.9938 184.778C60.9938 184.778 39.8937 184.178 37.5938 251.978Z" fill="url(#paint22_linear_341_472)"/>
<path d="M81.7935 162.678C81.7935 162.678 57.1935 207.278 48.7935 251.978" stroke="#15123F" stroke-width="0.3311" stroke-miterlimit="10" stroke-linecap="round" stroke-linejoin="round"/>
<path d="M56.7936 290.078H34.1936L30.4937 251.978H60.5936L56.7936 290.078Z" fill="#15123F"/>
<path d="M65.1937 251.978H26.5938V258.978H65.1937V251.978Z" fill="#383964"/>
<path d="M31.1934 258.978L59.2933 264.178L59.8933 258.978H31.1934Z" fill="#111124"/>
<path d="M178.694 217.178C178.394 214.978 176.494 213.378 174.294 213.378L174.794 215.078L60.6937 214.478C59.5937 215.478 58.8937 216.978 59.1937 218.578L70.2937 289.678H190.094L178.694 217.178Z" fill="url(#paint23_linear_341_472)"/>
<path d="M174.294 213.378H63.5936C62.4936 213.378 60.7937 214.078 59.9937 215.278L177.294 215.378L174.294 213.378Z" fill="#EBF0F8"/>
<path d="M235.494 289.678H164.094V281.778H235.494C237.694 281.778 239.494 283.578 239.494 285.778C239.494 287.878 237.694 289.678 235.494 289.678Z" fill="#CFDAEE"/>
<path d="M120.694 258.878C124.173 258.878 126.994 256.057 126.994 252.578C126.994 249.098 124.173 246.278 120.694 246.278C117.214 246.278 114.394 249.098 114.394 252.578C114.394 256.057 117.214 258.878 120.694 258.878Z" fill="#CFDAEE"/>
<path d="M177.993 215.378L190.293 287.078L184.793 287.978L172.493 216.278C172.193 214.778 173.293 213.378 174.793 213.078C176.293 212.878 177.693 213.878 177.993 215.378Z" fill="#CFDAEE"/>
<path d="M284.893 277.378C284.893 277.378 294.293 273.278 290.693 261.778C287.093 250.278 273.293 252.478 274.093 241.878C274.893 231.078 285.693 233.878 290.693 230.778C295.693 227.778 290.993 219.078 298.493 215.478C305.993 211.878 313.393 217.278 323.693 219.078C333.993 220.878 342.893 222.578 342.593 219.078C342.293 215.578 337.293 215.178 338.993 210.878C340.693 206.678 349.093 206.678 350.393 207.878C350.393 207.878 341.193 207.878 340.893 211.078C340.593 214.278 347.693 215.778 347.393 221.578C347.093 227.378 334.493 226.178 322.293 225.378C309.993 224.578 311.093 229.478 312.093 235.578C313.093 241.678 311.093 245.778 303.093 246.778C295.093 247.878 291.393 248.878 295.793 257.678C299.693 265.278 296.593 272.378 289.393 277.378H284.893Z" fill="url(#paint24_linear_341_472)"/>
<path d="M299.093 276.778C298.393 283.178 296.193 287.378 294.993 289.178C294.593 289.878 293.793 290.278 292.993 290.278H284.693C283.893 290.278 283.093 289.878 282.693 289.178C281.493 287.378 279.293 283.178 278.593 276.778C278.493 276.078 279.093 275.478 279.793 275.478H297.993C298.693 275.478 299.193 276.078 299.093 276.778Z" fill="#EEBF3B"/>
<path d="M297.494 280.878C298.294 280.178 300.293 278.878 301.293 278.678C301.693 278.578 302.194 278.578 302.594 278.678C302.994 278.778 303.393 279.178 303.393 279.678C303.393 279.978 303.293 280.178 303.193 280.378C302.093 283.178 299.293 285.178 296.293 285.278" stroke="#EDBE3A" stroke-width="1.3244" stroke-miterlimit="10"/>
<path opacity="0.38" d="M296.594 284.778C296.794 284.778 296.994 284.778 297.194 284.778C297.694 283.578 298.094 282.278 298.494 280.678H278.994C279.394 282.478 279.994 283.978 280.494 285.278H296.894C296.994 285.078 296.994 284.978 297.094 284.778C296.994 284.778 296.794 284.778 296.594 284.778Z" fill="#F8ECD6"/>
<path d="M339.693 298.878H26.6934V324.678H339.693V298.878Z" fill="#CFDAEE"/>
<path d="M19.1936 297.878L10.4937 455.278H16.2936L37.6936 297.878H19.1936Z" fill="#44559F"/>
<path d="M347.194 297.878L355.894 455.278H350.094L328.594 297.878H347.194Z" fill="#44559F"/>
<path d="M355.693 301.378H10.7933C7.69334 301.378 5.19336 298.878 5.19336 295.778C5.19336 292.678 7.69334 290.178 10.7933 290.178H355.693C358.793 290.178 361.293 292.678 361.293 295.778C361.293 298.878 358.793 301.378 355.693 301.378Z" fill="#44559F"/>
<path opacity="0.1" d="M18.7935 304.978L348.393 320.178L347.193 298.878H19.1935L18.7935 304.978Z" fill="url(#paint25_linear_341_472)"/>
<path d="M353.694 459.678C358.167 459.678 361.794 458.424 361.794 456.878C361.794 455.331 358.167 454.078 353.694 454.078C349.22 454.078 345.594 455.331 345.594 456.878C345.594 458.424 349.22 459.678 353.694 459.678Z" fill="#D1DAEB"/>
<path d="M13.1937 459.678C17.6672 459.678 21.2937 458.424 21.2937 456.878C21.2937 455.331 17.6672 454.078 13.1937 454.078C8.72022 454.078 5.09375 455.331 5.09375 456.878C5.09375 458.424 8.72022 459.678 13.1937 459.678Z" fill="#D1DAEB"/>
<defs>
<linearGradient id="paint0_linear_341_472" x1="102.598" y1="139.755" x2="112.961" y2="139.755" gradientUnits="userSpaceOnUse">
<stop offset="0.2151" stop-color="#E9A793"/>
<stop offset="1" stop-color="#E06F52"/>
</linearGradient>
<linearGradient id="paint1_linear_341_472" x1="122.553" y1="139.557" x2="177.96" y2="140.714" gradientUnits="userSpaceOnUse">
<stop offset="0.0863958" stop-color="#EDBE3A" stop-opacity="0.9078"/>
<stop offset="0.7398" stop-color="#E28B36"/>
</linearGradient>
<linearGradient id="paint2_linear_341_472" x1="131.811" y1="139.63" x2="99.7275" y2="139.96" gradientUnits="userSpaceOnUse">
<stop offset="0.2151" stop-color="#9CB3DB"/>
<stop offset="1" stop-color="#CFDAEE"/>
</linearGradient>
<linearGradient id="paint3_linear_341_472" x1="139.198" y1="139.755" x2="149.561" y2="139.755" gradientUnits="userSpaceOnUse">
<stop offset="0.2151" stop-color="#E9A793"/>
<stop offset="1" stop-color="#E06F52"/>
</linearGradient>
<linearGradient id="paint4_linear_341_472" x1="187.432" y1="140.361" x2="144.926" y2="139.534" gradientUnits="userSpaceOnUse">
<stop offset="0.2151" stop-color="#9CB3DB"/>
<stop offset="1" stop-color="#CFDAEE"/>
</linearGradient>
<linearGradient id="paint5_linear_341_472" x1="126.484" y1="43.7663" x2="228.132" y2="231.556" gradientUnits="userSpaceOnUse">
<stop offset="0.2151" stop-color="#9CB3DB"/>
<stop offset="1" stop-color="#CFDAEE"/>
</linearGradient>
<linearGradient id="paint6_linear_341_472" x1="240.819" y1="100.583" x2="303.058" y2="46.2897" gradientUnits="userSpaceOnUse">
<stop offset="0.2151" stop-color="#9CB3DB"/>
<stop offset="1" stop-color="#CFDAEE"/>
</linearGradient>
<linearGradient id="paint7_linear_341_472" x1="266.136" y1="165.003" x2="157.474" y2="194.278" gradientUnits="userSpaceOnUse">
<stop offset="2.872e-05" stop-color="#E06F52"/>
<stop offset="0.7496" stop-color="#E9A793"/>
</linearGradient>
<linearGradient id="paint8_linear_341_472" x1="213.461" y1="150.199" x2="235.624" y2="150.199" gradientUnits="userSpaceOnUse">
<stop offset="0.2151" stop-color="#A85640"/>
<stop offset="1" stop-color="#A85640" stop-opacity="0"/>
</linearGradient>
<linearGradient id="paint9_linear_341_472" x1="240.916" y1="168.96" x2="179.595" y2="249.059" gradientUnits="userSpaceOnUse">
<stop offset="0.1816" stop-color="#5B77B8"/>
<stop offset="0.5447" stop-color="#4A66AE"/>
</linearGradient>
<linearGradient id="paint10_linear_341_472" x1="208.666" y1="171.599" x2="267.797" y2="248.838" gradientUnits="userSpaceOnUse">
<stop offset="0.1816" stop-color="#5B77B8"/>
<stop offset="0.5447" stop-color="#4A66AE"/>
</linearGradient>
<linearGradient id="paint11_linear_341_472" x1="301.924" y1="172.52" x2="349.932" y2="172.52" gradientUnits="userSpaceOnUse">
<stop offset="2.872e-05" stop-color="#E06F52"/>
<stop offset="0.7496" stop-color="#E9A793"/>
</linearGradient>
<linearGradient id="paint12_linear_341_472" x1="324.21" y1="145.608" x2="332.713" y2="167.031" gradientUnits="userSpaceOnUse">
<stop offset="2.872e-05" stop-color="#E06F52"/>
<stop offset="0.9287" stop-color="#E9A793"/>
</linearGradient>
<linearGradient id="paint13_linear_341_472" x1="315.757" y1="234.034" x2="265.145" y2="234.034" gradientUnits="userSpaceOnUse">
<stop offset="0.1816" stop-color="#5B77B8"/>
<stop offset="0.5447" stop-color="#4A66AE"/>
</linearGradient>
<linearGradient id="paint14_linear_341_472" x1="230.445" y1="103.415" x2="190.68" y2="186.426" gradientUnits="userSpaceOnUse">
<stop offset="2.872e-05" stop-color="#E06F52"/>
<stop offset="0.7496" stop-color="#E9A793"/>
</linearGradient>
<linearGradient id="paint15_linear_341_472" x1="31.4446" y1="197.516" x2="0.0452147" y2="194.596" gradientUnits="userSpaceOnUse">
<stop offset="0.0251397" stop-color="#EDBE3A" stop-opacity="0.9078"/>
<stop offset="1" stop-color="#E28B36"/>
</linearGradient>
<linearGradient id="paint16_linear_341_472" x1="58.638" y1="188.844" x2="39.5424" y2="187.068" gradientUnits="userSpaceOnUse">
<stop offset="0.0251397" stop-color="#EDBE3A" stop-opacity="0.9078"/>
<stop offset="1" stop-color="#E28B36"/>
</linearGradient>
<linearGradient id="paint17_linear_341_472" x1="38.013" y1="226.971" x2="6.6294" y2="224.052" gradientUnits="userSpaceOnUse">
<stop offset="0.0251397" stop-color="#EDBE3A" stop-opacity="0.9078"/>
<stop offset="1" stop-color="#E28B36"/>
</linearGradient>
<linearGradient id="paint18_linear_341_472" x1="68.1303" y1="211.155" x2="50.0228" y2="209.471" gradientUnits="userSpaceOnUse">
<stop offset="0.0251397" stop-color="#EDBE3A" stop-opacity="0.9078"/>
<stop offset="1" stop-color="#E28B36"/>
</linearGradient>
<linearGradient id="paint19_linear_341_472" x1="38.9723" y1="166.97" x2="11.0884" y2="164.377" gradientUnits="userSpaceOnUse">
<stop offset="0.0251397" stop-color="#EDBE3A" stop-opacity="0.9078"/>
<stop offset="1" stop-color="#E28B36"/>
</linearGradient>
<linearGradient id="paint20_linear_341_472" x1="49.4256" y1="156.404" x2="73.9564" y2="338.064" gradientUnits="userSpaceOnUse">
<stop offset="0.2151" stop-color="#9CB3DB"/>
<stop offset="1" stop-color="#CFDAEE"/>
</linearGradient>
<linearGradient id="paint21_linear_341_472" x1="81.0921" y1="287.435" x2="52.583" y2="135.609" gradientUnits="userSpaceOnUse">
<stop stop-color="#677EBA"/>
<stop offset="0.4781" stop-color="#8DA3D2"/>
</linearGradient>
<linearGradient id="paint22_linear_341_472" x1="37.615" y1="207.105" x2="84.8825" y2="207.105" gradientUnits="userSpaceOnUse">
<stop offset="0.0251397" stop-color="#EDBE3A" stop-opacity="0.9078"/>
<stop offset="1" stop-color="#E28B36"/>
</linearGradient>
<linearGradient id="paint23_linear_341_472" x1="112.104" y1="188.322" x2="133.115" y2="298.63" gradientUnits="userSpaceOnUse">
<stop offset="0.2151" stop-color="#9CB3DB"/>
<stop offset="1" stop-color="#CFDAEE"/>
</linearGradient>
<linearGradient id="paint24_linear_341_472" x1="313.451" y1="270.205" x2="311.326" y2="193.428" gradientUnits="userSpaceOnUse">
<stop offset="0.0492588" stop-color="white"/>
<stop offset="1" stop-color="white" stop-opacity="0.6"/>
</linearGradient>
<linearGradient id="paint25_linear_341_472" x1="183.602" y1="258.45" x2="183.602" y2="416.716" gradientUnits="userSpaceOnUse">
<stop stop-color="#15123F"/>
<stop offset="1" stop-color="#13113B" stop-opacity="0"/>
</linearGradient>
</defs>
</svg>
