<svg width="24" height="24" viewBox="0 0 24 24" fill="none" xmlns="http://www.w3.org/2000/svg">
<path d="M14.1224 10.4584C13.6466 9.79224 12.8662 9.35449 11.9908 9.35449C11.1153 9.35449 10.3349 9.79224 9.8591 10.4584C9.55458 10.8961 9.36426 11.429 9.36426 12C9.36426 13.4465 10.5443 14.6265 11.9908 14.6265C13.4372 14.6265 14.6172 13.4465 14.6172 12C14.6172 11.429 14.4269 10.8961 14.1224 10.4584Z" fill="white"/>
<path d="M15.7778 10.4774C15.9681 10.8581 16.0823 11.4671 16.0823 12C16.0823 14.2459 14.2552 16.092 11.9903 16.092C9.72544 16.092 7.89832 14.2649 7.89832 12C7.89832 11.4481 8.01251 10.8581 8.20284 10.4774H5.8999V16.5869C5.8999 17.3862 6.60411 18.0904 7.40347 18.0904H16.5771C17.3765 18.0904 18.0807 17.3862 18.0807 16.5869V10.4774H15.7778Z" fill="white"/>
<path d="M17.3958 6.25219H15.188V8.78351H17.7003V6.57574V6.23315L17.3958 6.25219Z" fill="white"/>
<path d="M17.9667 0.00952148H6.01427C2.70262 0.00952148 0 2.71214 0 6.0238V17.9952C0 21.2879 2.70262 23.9905 6.01427 23.9905H17.9857C21.2974 23.9905 24 21.2879 24 17.9762V6.0238C23.981 2.71214 21.2784 0.00952148 17.9667 0.00952148ZM19.4132 10.4584V16.5868C19.4132 18.1856 18.1761 19.4227 16.5773 19.4227H7.40365C5.80492 19.4227 4.5678 18.1856 4.5678 16.5868V10.4584V7.41317C4.5678 5.81444 5.80492 4.57733 7.40365 4.57733H16.5773C18.1761 4.57733 19.4132 5.81444 19.4132 7.41317V10.4584Z" fill="white"/>
</svg>
