<svg width="24" height="25" viewBox="0 0 24 25" fill="none" xmlns="http://www.w3.org/2000/svg">
<path d="M17.9667 0.38208H6.01427C2.70262 0.38208 0 3.09221 0 6.41308V18.4178C0 21.7196 2.70262 24.4297 6.01427 24.4297H17.9857C21.2974 24.4297 24 21.7196 24 18.3987V6.41308C23.981 3.09221 21.2784 0.38208 17.9667 0.38208ZM7.99366 19.8492H4.5678V9.9248H7.99366V19.8492ZM6.2617 8.39797C5.29104 8.39797 4.51071 7.61546 4.51071 6.6421C4.51071 5.66875 5.29104 4.88624 6.2617 4.88624C7.23236 4.88624 8.01269 5.66875 8.01269 6.6421C7.99366 7.61546 7.21332 8.39797 6.2617 8.39797ZM19.4322 19.8492H19.4132H16.5583V15.0397C16.5583 13.8755 16.406 12.3868 14.8263 12.3868C13.2086 12.3868 12.9421 13.6465 12.9421 14.9634V19.8492H10.0872V9.9248H12.7518V11.2608H12.8279C13.2466 10.4974 14.2173 9.90572 15.7399 9.90572C18.8803 9.90572 19.4322 11.7188 19.4322 14.4099V19.8492Z" fill="white"/>
</svg>
