<svg width="15" height="20" viewBox="0 0 15 20" fill="none" xmlns="http://www.w3.org/2000/svg">
<path d="M7.33333 0C3.28971 0 0 3.2493 0 7.24321C0 12.1998 6.56261 19.4763 6.84202 19.7837C7.10447 20.0724 7.56267 20.0719 7.82464 19.7837C8.10405 19.4763 14.6667 12.1998 14.6667 7.24321C14.6666 3.2493 11.3769 0 7.33333 0ZM7.33333 10.8875C5.29889 10.8875 3.64379 9.25267 3.64379 7.24321C3.64379 5.23376 5.29893 3.59899 7.33333 3.59899C9.36774 3.59899 11.0228 5.2338 11.0228 7.24325C11.0228 9.25271 9.36774 10.8875 7.33333 10.8875Z" fill="white"/>
</svg>
