<svg width="70" height="40" viewBox="0 0 70 40" fill="none" xmlns="http://www.w3.org/2000/svg">
<path d="M3.33937 34.4784C3.30572 34.5526 3.27759 34.6292 3.25521 34.7076C3.22979 34.7958 3.2096 34.8855 3.19475 34.9762C3.19096 34.9032 3.17983 34.8308 3.16156 34.7601C3.1403 34.6781 3.11173 34.5982 3.07621 34.5214L2.46098 33.1786H2.41357L1.81138 34.525C1.77278 34.6068 1.74029 34.6914 1.71417 34.778C1.69586 34.8421 1.68551 34.9083 1.68335 34.975C1.66755 34.8675 1.64898 34.7697 1.62764 34.6813C1.61142 34.6099 1.58921 34.5401 1.56125 34.4725L1.00411 33.2693H0.395996L1.6798 35.9143L2.2725 34.6014C2.28989 34.5608 2.3136 34.4999 2.34363 34.4188C2.37366 34.3376 2.40764 34.2397 2.44557 34.1251C2.46849 34.2007 2.49378 34.2775 2.52144 34.3555C2.5491 34.4335 2.58466 34.5226 2.62812 34.6229L3.20068 35.9203L4.48922 33.2753H3.88585L3.33937 34.4784Z" fill="#2B66FA"/>
<path d="M5.9592 33.1788C5.78545 33.1726 5.61233 33.2029 5.45089 33.2678C5.28944 33.3328 5.14321 33.4309 5.02154 33.5559C4.89901 33.6845 4.80343 33.8365 4.7405 34.003C4.67757 34.1695 4.64858 34.3471 4.65525 34.5251C4.64701 34.7035 4.67422 34.8817 4.73528 35.0494C4.79635 35.2171 4.89004 35.3707 5.01087 35.5015C5.13508 35.6254 5.28353 35.722 5.44678 35.785C5.61004 35.8481 5.78454 35.8763 5.9592 35.8679C6.21224 35.8743 6.46222 35.8112 6.6823 35.6853C6.90153 35.5481 7.08037 35.3544 7.20033 35.1243L6.72616 34.8557C6.65415 35.0062 6.5442 35.135 6.40728 35.2293C6.26917 35.3122 6.11042 35.3536 5.94972 35.3487C5.85828 35.3529 5.767 35.3376 5.68182 35.3039C5.59664 35.2702 5.51949 35.2187 5.4554 35.1529C5.32199 35.0006 5.24824 34.8046 5.24795 34.6015H7.2264V34.4917C7.2264 34.0779 7.11498 33.7561 6.89212 33.5261C6.66926 33.2961 6.35829 33.1804 5.9592 33.1788ZM5.28233 34.2136C5.31349 34.0532 5.39693 33.9079 5.51941 33.8006C5.64894 33.704 5.80768 33.6555 5.96868 33.6634C6.13562 33.655 6.30014 33.7062 6.43336 33.8078C6.55197 33.9121 6.62518 34.0591 6.63725 34.2172L5.28233 34.2136Z" fill="#2B66FA"/>
<path d="M8.88532 34.3305C8.83474 34.3098 8.76322 34.2828 8.67076 34.2493C8.37836 34.1419 8.23217 34.0226 8.23217 33.8913C8.23099 33.8514 8.23932 33.8119 8.25643 33.776C8.27355 33.7401 8.29897 33.7088 8.33055 33.6848C8.40583 33.63 8.49738 33.6026 8.59015 33.6072C8.6807 33.6051 8.76997 33.6291 8.84739 33.6764C8.91879 33.7199 8.97351 33.7863 9.00267 33.865L9.40571 33.5857C9.34239 33.4533 9.23678 33.3461 9.1058 33.2813C8.95228 33.2082 8.78362 33.173 8.61386 33.1787C8.36744 33.1664 8.12429 33.2397 7.92515 33.3864C7.84233 33.4495 7.7756 33.5316 7.73046 33.6258C7.68533 33.72 7.66308 33.8237 7.66555 33.9283C7.66212 34.0822 7.71872 34.2313 7.8232 34.3436C7.98409 34.4924 8.1732 34.6069 8.37915 34.6802C8.42657 34.7009 8.49374 34.7272 8.58067 34.759C8.8383 34.8553 8.96711 34.9711 8.96711 35.1063C8.96869 35.1519 8.95965 35.1973 8.94071 35.2387C8.92177 35.2802 8.89347 35.3166 8.85805 35.345C8.77125 35.4086 8.66526 35.4398 8.55815 35.4334C8.42977 35.4389 8.30277 35.4048 8.19423 35.3355C8.09793 35.2673 8.02932 35.1665 8.00101 35.0514L7.52686 35.3092C7.60628 35.4849 7.73802 35.6313 7.90381 35.7282C8.08979 35.8256 8.29766 35.8729 8.50718 35.8655C8.77121 35.8806 9.03261 35.8057 9.24923 35.653C9.3374 35.5841 9.40786 35.495 9.45468 35.393C9.5015 35.291 9.52333 35.1792 9.51832 35.0669C9.5235 34.9098 9.47071 34.7563 9.37014 34.6361C9.23409 34.4979 9.06816 34.3934 8.88532 34.3305Z" fill="#2B66FA"/>
<path d="M10.7971 32.324H10.2305V33.2693H9.79541V33.7694H10.2305V35.7651H10.7971V33.7694H11.231V33.2693H10.7971V32.324Z" fill="#2B66FA"/>
<path d="M12.835 33.1788C12.6612 33.1726 12.4881 33.2029 12.3267 33.2678C12.1652 33.3328 12.019 33.4309 11.8973 33.5559C11.7756 33.684 11.6805 33.8353 11.6178 34.0009C11.5551 34.1666 11.526 34.3432 11.5322 34.5203C11.524 34.6987 11.5512 34.8769 11.6122 35.0446C11.6733 35.2122 11.767 35.3659 11.8878 35.4966C12.012 35.6205 12.1605 35.7171 12.3237 35.7802C12.487 35.8433 12.6615 35.8715 12.8362 35.863C13.0897 35.8693 13.3401 35.8057 13.5604 35.6792C13.7797 35.5421 13.9586 35.3484 14.0785 35.1183L13.6043 34.8497C13.5323 35.0002 13.4223 35.129 13.2854 35.2233C13.1473 35.3061 12.9886 35.3476 12.8279 35.3426C12.7364 35.3469 12.6451 35.3316 12.56 35.2979C12.4748 35.2641 12.3976 35.2127 12.3335 35.1469C12.2016 34.9957 12.1284 34.8015 12.1273 34.6003H14.1093V34.4917C14.1093 34.0779 13.9979 33.756 13.775 33.5261C13.5521 33.2961 13.2388 33.1804 12.835 33.1788ZM12.1581 34.2136C12.1893 34.0532 12.2727 33.9078 12.3952 33.8006C12.5247 33.704 12.6834 33.6555 12.8444 33.6633C13.0114 33.6537 13.1763 33.7036 13.3103 33.8042C13.4289 33.9085 13.5021 34.0555 13.5142 34.2136H12.1581Z" fill="#2B66FA"/>
<path d="M15.8798 33.1788C15.7458 33.1745 15.6144 33.2166 15.5075 33.2981C15.3966 33.3961 15.3146 33.5228 15.2705 33.6646V33.2623H14.7026V35.7689H15.2705V34.6708C15.2705 34.3127 15.31 34.0577 15.389 33.9057C15.4274 33.8322 15.4861 33.7716 15.5581 33.7311C15.6301 33.6906 15.7122 33.6721 15.7944 33.6777C15.8585 33.6769 15.9224 33.6854 15.9841 33.7028C16.0406 33.7195 16.0939 33.7458 16.1417 33.7804L16.3456 33.2957C16.2726 33.2594 16.1959 33.231 16.1168 33.211C16.0394 33.1906 15.9598 33.1798 15.8798 33.1788Z" fill="#2B66FA"/>
<path d="M18.9382 33.5367C18.8648 33.421 18.7587 33.33 18.6336 33.2753C18.4835 33.2124 18.3219 33.1823 18.1594 33.187C17.9662 33.1815 17.7744 33.2224 17.5999 33.3064C17.4366 33.3946 17.2989 33.5242 17.2004 33.6823V33.2741H16.667V35.7699H17.2348V34.6324C17.2314 34.4824 17.2397 34.3324 17.2597 34.1837C17.2718 34.1013 17.3017 34.0227 17.3474 33.9533C17.4084 33.8629 17.4929 33.791 17.5916 33.7456C17.7032 33.6946 17.8247 33.6693 17.9472 33.6716C18.1495 33.6716 18.2902 33.7257 18.3692 33.8339C18.4483 33.9421 18.4878 34.1602 18.4878 34.488V35.7699H19.0603V34.2529C19.0651 34.0932 19.0555 33.9334 19.0319 33.7754C19.0152 33.6908 18.9835 33.61 18.9382 33.5367Z" fill="#2B66FA"/>
<path d="M22.133 32.324H21.5652V33.2693H21.1313V33.7694H21.5652V35.7651H22.133V33.7694H22.5669V33.2693H22.133V32.324Z" fill="#2B66FA"/>
<path d="M24.2377 33.1788C24.1037 33.1745 23.9723 33.2166 23.8654 33.2981C23.7545 33.3961 23.6725 33.5228 23.6284 33.6646V33.2623H23.0605V35.7689H23.6224V34.6708C23.6224 34.3127 23.6619 34.0577 23.741 33.9057C23.7794 33.8322 23.8381 33.7716 23.9101 33.7311C23.982 33.6906 24.0641 33.6721 24.1464 33.6777C24.2105 33.6769 24.2743 33.6854 24.336 33.7028C24.3925 33.7195 24.4458 33.7458 24.4937 33.7804L24.6976 33.2957C24.6245 33.2594 24.5478 33.231 24.4688 33.211C24.3933 33.1911 24.3157 33.1802 24.2377 33.1788Z" fill="#2B66FA"/>
<path d="M26.7925 33.6777C26.7309 33.5233 26.62 33.394 26.4772 33.3101C26.2617 33.1951 26.0142 33.1562 25.7742 33.1994C25.5342 33.2427 25.3155 33.3657 25.1531 33.5488C24.938 33.8222 24.8285 34.1648 24.8449 34.5132C24.8449 34.9326 24.9456 35.2628 25.1471 35.5039C25.249 35.6235 25.3768 35.718 25.5207 35.7801C25.6645 35.8422 25.8206 35.8702 25.9769 35.862C26.1381 35.8675 26.298 35.8311 26.4412 35.7565C26.5844 35.6819 26.7062 35.5715 26.7949 35.4359V35.7593H27.3627V33.2695H26.7949L26.7925 33.6777ZM26.6159 35.1255C26.5542 35.1976 26.4781 35.2557 26.3926 35.2961C26.3071 35.3365 26.2141 35.3582 26.1196 35.3599C26.0252 35.3616 25.9314 35.3432 25.8445 35.3059C25.7577 35.2686 25.6796 35.2132 25.6154 35.1434C25.4982 34.9596 25.4366 34.7455 25.4378 34.5271C25.4391 34.3087 25.5032 34.0953 25.6225 33.9129C25.6843 33.8392 25.7621 33.7809 25.8498 33.7424C25.9376 33.7039 26.033 33.6863 26.1287 33.6909C26.2229 33.6859 26.317 33.7028 26.4038 33.7403C26.4905 33.7777 26.5675 33.8347 26.6289 33.9069C26.7576 34.0801 26.821 34.2937 26.8079 34.5097C26.8185 34.7314 26.7504 34.9497 26.6159 35.1255Z" fill="#2B66FA"/>
<path d="M29.9048 33.6776C29.8432 33.5231 29.7323 33.3938 29.5895 33.3099C29.374 33.1949 29.1265 33.156 28.8865 33.1993C28.6465 33.2425 28.4278 33.3655 28.2654 33.5487C28.0503 33.8221 27.9408 34.1647 27.9572 34.5131C27.9572 34.9324 28.0579 35.2627 28.2595 35.5038C28.3613 35.6234 28.4891 35.7179 28.633 35.78C28.7769 35.8421 28.9329 35.8701 29.0892 35.8619C29.249 35.8681 29.4078 35.8332 29.5505 35.7605C29.6931 35.6879 29.8151 35.5798 29.9048 35.4465V35.77H30.4726V31.6854H29.9048V33.6776ZM29.7294 35.1266C29.6674 35.1984 29.5911 35.2563 29.5055 35.2965C29.4198 35.3367 29.3267 35.3583 29.2322 35.3599C29.1377 35.3614 29.044 35.343 28.9571 35.3057C28.8701 35.2683 28.792 35.213 28.7277 35.1433C28.6105 34.9595 28.5489 34.7454 28.5501 34.5269C28.5514 34.3085 28.6155 34.0952 28.7348 33.9127C28.7966 33.8391 28.8744 33.7807 28.9622 33.7422C29.0499 33.7037 29.1453 33.6861 29.241 33.6907C29.3352 33.6857 29.4293 33.7026 29.5161 33.7401C29.6028 33.7776 29.6798 33.8346 29.7412 33.9067C29.8699 34.08 29.9333 34.2936 29.9202 34.5095C29.9321 34.731 29.8658 34.9496 29.7329 35.1266H29.7294Z" fill="#2B66FA"/>
<path d="M32.3781 33.1785C32.2048 33.1735 32.0323 33.2049 31.8717 33.2706C31.7111 33.3364 31.5658 33.4351 31.4452 33.5604C31.3234 33.6885 31.2284 33.8398 31.1657 34.0055C31.103 34.1711 31.0739 34.3477 31.0801 34.5249C31.0718 34.7033 31.099 34.8815 31.1601 35.0492C31.2212 35.2168 31.3148 35.3705 31.4357 35.5012C31.5599 35.6252 31.7083 35.7217 31.8716 35.7848C32.0348 35.8479 32.2093 35.8761 32.384 35.8677C32.6362 35.8737 32.8853 35.8105 33.1047 35.6851C33.324 35.5479 33.5028 35.3542 33.6228 35.1241L33.1486 34.8555C33.0766 35.006 32.9666 35.1348 32.8297 35.2291C32.6916 35.312 32.5328 35.3534 32.3721 35.3485C32.2807 35.3527 32.1894 35.3374 32.1043 35.3037C32.0191 35.2699 31.9419 35.2185 31.8778 35.1527C31.7459 35.0015 31.6727 34.8073 31.6716 34.606H33.6536V34.4915C33.6536 34.0777 33.5421 33.7558 33.3193 33.5258C33.0964 33.2959 32.7827 33.1801 32.3781 33.1785ZM31.7012 34.2133C31.7325 34.053 31.8159 33.9077 31.9383 33.8004C32.0678 33.7038 32.2266 33.6553 32.3876 33.6631C32.5545 33.6535 32.7194 33.7033 32.8534 33.8039C32.972 33.9082 33.0452 34.0553 33.0573 34.2133H31.7012Z" fill="#2B66FA"/>
<path d="M37.6167 33.6777C37.5551 33.5233 37.4442 33.394 37.3014 33.3101C37.086 33.1951 36.8385 33.1562 36.5984 33.1994C36.3584 33.2427 36.1397 33.3657 35.9773 33.5488C35.7622 33.8222 35.6527 34.1648 35.6691 34.5133C35.6691 34.9326 35.7698 35.2628 35.9714 35.5039C36.0733 35.6236 36.2011 35.718 36.3449 35.7801C36.4888 35.8422 36.6449 35.8702 36.8012 35.862C36.9623 35.8675 37.1222 35.8312 37.2654 35.7566C37.4086 35.6819 37.5304 35.5715 37.6191 35.4359V35.7677C37.6191 36.0184 37.565 36.1974 37.4567 36.3048C37.3484 36.4123 37.1742 36.466 36.9339 36.466C36.8014 36.4732 36.6694 36.4439 36.5522 36.3812C36.5091 36.3561 36.4729 36.3206 36.4468 36.2779C36.4207 36.2352 36.4056 36.1866 36.4029 36.1365H35.7936C35.7933 36.2513 35.8216 36.3642 35.8759 36.4652C35.9301 36.5661 36.0086 36.6517 36.1041 36.7142C36.3479 36.8702 36.6337 36.9461 36.9221 36.9315C37.3804 36.9315 37.7064 36.832 37.9 36.6331C38.0937 36.4341 38.1905 36.0908 38.1905 35.603V33.2695H37.6226L37.6167 33.6777ZM37.4401 35.1256C37.3784 35.1976 37.3023 35.2557 37.2168 35.2961C37.1313 35.3365 37.0383 35.3582 36.9438 35.3599C36.8494 35.3616 36.7557 35.3432 36.6688 35.3059C36.5819 35.2686 36.5038 35.2133 36.4396 35.1435C36.3225 34.9596 36.2608 34.7455 36.262 34.5271C36.2633 34.3087 36.3274 34.0953 36.4467 33.9129C36.5085 33.8392 36.5863 33.7809 36.6741 33.7424C36.7618 33.7039 36.8573 33.6863 36.9529 33.6909C37.0471 33.6859 37.1412 33.7028 37.228 33.7403C37.3147 33.7777 37.3917 33.8347 37.4531 33.9069C37.5817 34.0802 37.6452 34.2938 37.6321 34.5097C37.6427 34.7314 37.5746 34.9497 37.4401 35.1256Z" fill="#2B66FA"/>
<path d="M40.1498 33.1788C40.0158 33.1745 39.8844 33.2166 39.7775 33.2981C39.6666 33.3961 39.5846 33.5228 39.5405 33.6646V33.2623H38.9727V35.7689H39.5405V34.6708C39.5405 34.3127 39.58 34.0577 39.659 33.9057C39.6974 33.8322 39.7561 33.7716 39.8281 33.7311C39.9001 33.6906 39.9822 33.6721 40.0644 33.6777C40.1285 33.6769 40.1924 33.6854 40.2541 33.7028C40.3106 33.7195 40.3639 33.7458 40.4117 33.7804L40.6156 33.2957C40.5426 33.2594 40.4659 33.231 40.3868 33.211C40.3094 33.1906 40.2298 33.1798 40.1498 33.1788Z" fill="#2B66FA"/>
<path d="M43.0856 33.5771C42.9589 33.4499 42.8081 33.3497 42.6422 33.2823C42.3059 33.1489 41.9318 33.1489 41.5955 33.2823C41.432 33.3477 41.2829 33.4451 41.1569 33.5688C41.0304 33.6918 40.9296 33.8391 40.8605 34.0021C40.7927 34.1658 40.7578 34.3415 40.7578 34.5189C40.7578 34.6964 40.7927 34.872 40.8605 35.0358C41.0032 35.367 41.2686 35.6291 41.6002 35.7663C41.9342 35.9015 42.3071 35.9015 42.641 35.7663C42.8096 35.6969 42.9633 35.5956 43.0939 35.4679C43.2202 35.3471 43.3203 35.2011 43.3878 35.0394C43.4555 34.8752 43.4897 34.699 43.4886 34.5213C43.4892 34.3466 43.4545 34.1736 43.3867 34.0128C43.3165 33.8486 43.2141 33.7004 43.0856 33.5771ZM42.6636 35.1134C42.5947 35.1892 42.5109 35.2497 42.4175 35.2912C42.3242 35.3326 42.2233 35.354 42.1212 35.354C42.0192 35.354 41.9183 35.3326 41.8249 35.2912C41.7316 35.2497 41.6478 35.1892 41.5789 35.1134C41.435 34.9516 41.3555 34.7421 41.3555 34.5249C41.3555 34.3077 41.435 34.0982 41.5789 33.9364C41.6479 33.8606 41.7318 33.8 41.8252 33.7586C41.9187 33.7171 42.0197 33.6957 42.1218 33.6957C42.224 33.6957 42.325 33.7171 42.4184 33.7586C42.5119 33.8 42.5958 33.8606 42.6647 33.9364C42.8084 34.0983 42.8878 34.3078 42.8878 34.5249C42.8878 34.742 42.8084 34.9515 42.6647 35.1134H42.6636Z" fill="#2B66FA"/>
<path d="M45.9022 34.6755C45.9022 34.9143 45.8524 35.0881 45.7528 35.1971C45.6118 35.299 45.4427 35.3538 45.2692 35.3538C45.0957 35.3538 44.9265 35.299 44.7855 35.1971C44.686 35.0921 44.6362 34.9182 44.6362 34.6755V33.2694H44.0684V34.5036C44.0684 34.9811 44.1632 35.3284 44.3529 35.5457C44.5425 35.7629 44.8491 35.87 45.2727 35.8668C45.6892 35.8668 45.9923 35.759 46.1819 35.5433C46.3716 35.3277 46.4664 34.9811 46.4664 34.5036V33.2694H45.8986L45.9022 34.6755Z" fill="#2B66FA"/>
<path d="M48.6412 33.1789C48.459 33.1738 48.2788 33.2183 48.1197 33.3078C47.9764 33.3912 47.8647 33.52 47.802 33.6742V33.266H47.2354V36.9348H47.8043V35.4465C47.893 35.5822 48.0148 35.6926 48.158 35.7672C48.3012 35.8418 48.4611 35.8781 48.6223 35.8726C48.7786 35.8808 48.9347 35.8528 49.0785 35.7907C49.2224 35.7287 49.3502 35.6342 49.4521 35.5146C49.6536 35.2759 49.7543 34.9457 49.7543 34.5239C49.7708 34.1758 49.6617 33.8333 49.4473 33.5596C49.3514 33.4376 49.2287 33.3398 49.0888 33.2737C48.9489 33.2076 48.7957 33.1752 48.6412 33.1789ZM48.9803 35.1398C48.9195 35.2121 48.8429 35.2692 48.7565 35.3066C48.6701 35.3441 48.5763 35.361 48.4824 35.3558C48.386 35.359 48.2902 35.3398 48.2024 35.2996C48.1146 35.2595 48.0372 35.1995 47.9762 35.1243C47.841 34.9479 47.7728 34.7286 47.7842 34.506C47.7711 34.29 47.835 34.0762 47.9644 33.9033C48.0296 33.8346 48.108 33.7801 48.1949 33.7431C48.2818 33.706 48.3753 33.6873 48.4697 33.6879C48.5641 33.6886 48.6573 33.7087 48.7437 33.747C48.8301 33.7852 48.9077 33.8409 48.972 33.9105C49.091 34.093 49.1551 34.3062 49.1566 34.5245C49.158 34.7428 49.0968 34.9569 48.9803 35.141V35.1398Z" fill="#2B66FA"/>
<path d="M47.2934 8.71843H43.8V0.664062H39.2327V8.71843H35.7393V12.982H39.2327V29.9895H43.8V12.982H47.2934V8.71843Z" fill="#2B66FA"/>
<path d="M65.4342 8.7194V12.1975C64.9007 10.836 64.0555 9.79284 62.8986 9.06793C61.7416 8.34302 60.3491 7.98017 58.7212 7.97937C56.0548 7.97937 53.8942 9.02257 52.2394 11.109C50.5845 13.1954 49.7547 15.9363 49.75 19.3317C49.75 22.9069 50.5604 25.7226 52.1813 27.7787C53.8021 29.8349 56.0224 30.8634 58.8421 30.8642C60.2448 30.8642 61.4899 30.565 62.5773 29.9666C63.6647 29.3682 64.6154 28.4559 65.4294 27.2297L65.3879 30.0573C65.3737 32.1962 64.9391 33.722 64.084 34.6348C63.2289 35.5475 61.8258 36.0038 59.8746 36.0038C58.5556 36.0038 57.5314 35.7651 56.802 35.2876C56.0726 34.8102 55.6727 34.1147 55.6024 33.2012L50.6983 33.2239C50.726 35.2729 51.5609 36.9145 53.2031 38.1487C54.8453 39.3829 57.0411 40 59.7904 40C63.4802 40 66.1039 39.1509 67.6616 37.4528C69.2192 35.7547 69.998 32.8269 69.998 28.6692V8.7194H65.4342ZM64.0117 24.5369C62.9843 25.8682 61.648 26.5338 60.0026 26.5338C58.264 26.5338 56.917 25.9207 55.9616 24.6945C55.0061 23.4683 54.5292 21.7256 54.5308 19.4665C54.5308 17.2226 55.0255 15.4688 56.0149 14.2052C57.0043 12.9415 58.362 12.3097 60.088 12.3097C61.8139 12.3097 63.1574 12.9228 64.1184 14.1491C65.0793 15.3753 65.5598 17.0861 65.5598 19.2815C65.5606 21.4539 65.0454 23.2057 64.014 24.5369H64.0117Z" fill="#2B66FA"/>
<path d="M36.0783 28.0341L30.469 18.748L25.8174 30.5395L18.302 12.6081L11.3175 30.5395L6.37081 17.9423L0.242252 28.0341C0.0887993 28.2885 0.00527536 28.5793 0.000241792 28.8769C-0.00479178 29.1744 0.0688462 29.468 0.213607 29.7274C0.358368 29.9869 0.569046 30.2029 0.824044 30.3534C1.07904 30.5038 1.36919 30.5833 1.66474 30.5837H34.6535C34.9492 30.5837 35.2397 30.5046 35.495 30.3543C35.7503 30.204 35.9614 29.988 36.1064 29.7285C36.2514 29.469 36.3253 29.1752 36.3204 28.8775C36.3154 28.5797 36.2319 28.2887 36.0783 28.0341Z" fill="#2B66FA"/>
<path d="M18.2853 3.42239L25.5424 21.1233L27.8954 14.487L19.6272 0.803655C19.4783 0.558195 19.2693 0.355369 19.0202 0.21464C18.7711 0.0739106 18.4903 0 18.2047 0C17.9191 0 17.6382 0.0739106 17.3891 0.21464C17.14 0.355369 16.931 0.558195 16.7822 0.803655L8.9585 13.6944L11.7584 21.14L18.2853 3.42239Z" fill="#2B66FA"/>
<path d="M67.7229 0.681707C68.027 0.679751 68.3284 0.73858 68.6096 0.854783C68.8893 0.971774 69.1419 1.1457 69.3517 1.36566C69.5593 1.57477 69.7233 1.82354 69.8342 2.09735C69.9454 2.3737 70.0018 2.66933 70.0001 2.96751C70.0023 3.272 69.9443 3.57388 69.8294 3.85557C69.7161 4.13159 69.5474 4.38108 69.3339 4.58846C69.1187 4.80064 68.8652 4.96957 68.5871 5.08621C68.3137 5.20101 68.0204 5.25985 67.7241 5.25928C67.4259 5.25983 67.1307 5.19932 66.8564 5.08143C66.3014 4.83896 65.8601 4.39117 65.6236 3.83051C65.5109 3.55399 65.4537 3.25779 65.4551 2.95892C65.4565 2.66005 65.5166 2.36441 65.6319 2.089C65.7504 1.80523 65.9232 1.5477 66.1404 1.33104C66.3456 1.12178 66.5908 0.956522 66.8612 0.845234C67.1352 0.734987 67.4279 0.679447 67.7229 0.681707ZM67.7229 1.02547C67.4712 1.02307 67.2215 1.07052 66.988 1.16513C66.7582 1.26093 66.5498 1.40218 66.3751 1.58051C66.1916 1.76694 66.0444 1.98638 65.9413 2.22746C65.841 2.46236 65.7893 2.7154 65.7895 2.97109C65.7904 3.22374 65.8411 3.47369 65.9389 3.70637C66.0356 3.94099 66.1769 4.15429 66.355 4.33422C66.533 4.51941 66.7452 4.66781 66.9797 4.77109C67.2041 4.86982 67.4461 4.9214 67.6909 4.92268C67.9516 4.92256 68.2098 4.87106 68.4508 4.77109C68.6904 4.67352 68.9083 4.52909 69.0921 4.34615C69.272 4.17242 69.415 3.96371 69.5124 3.73268C69.6098 3.50165 69.6596 3.25311 69.6587 3.00213C69.6607 2.74123 69.6133 2.48236 69.5189 2.2394C69.4251 2.0026 69.2853 1.78709 69.1075 1.60558C68.9254 1.42194 68.7096 1.27561 68.4721 1.17468C68.236 1.0751 67.9825 1.02436 67.7265 1.02547H67.7229ZM66.7948 1.64377H67.7751C68.1292 1.64377 68.3975 1.70226 68.58 1.81924C68.6676 1.87319 68.7393 1.94982 68.7874 2.04116C68.8356 2.13249 68.8585 2.23516 68.8538 2.33847C68.8643 2.50659 68.8118 2.67255 68.7067 2.80359C68.6015 2.93464 68.4515 3.02123 68.286 3.04629L68.8538 4.20889H68.2433L67.7384 3.13462H67.3413V4.20889H66.7948V1.64377ZM67.3413 1.98993V2.79682H67.6969C67.8525 2.80854 68.0082 2.77586 68.1461 2.70252C68.1937 2.66967 68.2319 2.62482 68.2569 2.57246C68.2818 2.52009 68.2927 2.46204 68.2884 2.40412C68.2922 2.34343 68.2806 2.28276 68.2547 2.22784C68.2287 2.17291 68.1894 2.12554 68.1402 2.09019C67.995 2.01154 67.8304 1.97673 67.6661 1.98993H67.3413Z" fill="#2B66FA"/>
</svg>
