<svg width="120" height="75" viewBox="0 0 120 75" fill="none" xmlns="http://www.w3.org/2000/svg">
<path d="M5.72057 64.6255C5.66289 64.7626 5.61466 64.9042 5.57629 65.0491C5.53272 65.2122 5.49811 65.378 5.47266 65.5455C5.46615 65.4107 5.44708 65.2769 5.41575 65.1462C5.37931 64.9946 5.33034 64.8469 5.26944 64.7049L4.21477 62.2227H4.13348L3.10116 64.7115C3.03501 64.8627 2.97931 65.0191 2.93453 65.1793C2.90314 65.2978 2.8854 65.4201 2.88169 65.5433C2.8546 65.3447 2.82276 65.1638 2.78618 65.0005C2.75838 64.8686 2.72031 64.7394 2.67238 64.6144L1.71729 62.3903H0.674805L2.8756 67.2798L3.89166 64.8527C3.92146 64.7777 3.96211 64.6652 4.01359 64.5151C4.06507 64.3651 4.12332 64.1842 4.18835 63.9723C4.22764 64.1121 4.27099 64.254 4.31841 64.3982C4.36582 64.5423 4.42679 64.7071 4.5013 64.8924L5.48282 67.2908L7.69174 62.4014H6.65738L5.72057 64.6255Z" fill="white"/>
<path d="M10.2134 62.2229C9.91554 62.2114 9.61876 62.2675 9.342 62.3875C9.06523 62.5076 8.81456 62.689 8.60598 62.9201C8.39593 63.1577 8.23208 63.4388 8.1242 63.7466C8.01632 64.0544 7.96662 64.3826 7.97805 64.7117C7.96393 65.0415 8.01057 65.371 8.11526 65.6809C8.21994 65.9908 8.38056 66.2749 8.58769 66.5166C8.80062 66.7456 9.0551 66.9242 9.33496 67.0408C9.61483 67.1574 9.91397 67.2095 10.2134 67.1939C10.6472 67.2058 11.0757 67.0891 11.453 66.8563C11.8288 66.6027 12.1354 66.2447 12.341 65.8193L11.5282 65.3229C11.4047 65.601 11.2162 65.8392 10.9815 66.0135C10.7448 66.1667 10.4726 66.2432 10.1971 66.2341C10.0404 66.2419 9.88391 66.2137 9.73789 66.1514C9.59187 66.089 9.45961 65.9939 9.34974 65.8723C9.12103 65.5907 8.99461 65.2284 8.99412 64.8529H12.3857V64.6499C12.3857 63.8851 12.1947 63.2901 11.8127 62.865C11.4306 62.4399 10.8975 62.2258 10.2134 62.2229ZM9.05305 64.1359C9.10647 63.8394 9.2495 63.5707 9.45947 63.3724C9.68153 63.1939 9.95364 63.1042 10.2296 63.1187C10.5158 63.1033 10.7979 63.1978 11.0262 63.3857C11.2296 63.5785 11.3551 63.8502 11.3758 64.1425L9.05305 64.1359Z" fill="white"/>
<path d="M15.2311 64.3521C15.1444 64.3139 15.0218 64.2639 14.8633 64.2021C14.3621 64.0035 14.1114 63.7829 14.1114 63.5401C14.1094 63.4665 14.1237 63.3934 14.153 63.327C14.1824 63.2606 14.226 63.2028 14.2801 63.1584C14.4091 63.0571 14.5661 63.0066 14.7251 63.015C14.8804 63.0111 15.0334 63.0555 15.1661 63.143C15.2885 63.2233 15.3823 63.3461 15.4323 63.4916L16.1232 62.9753C16.0147 62.7306 15.8336 62.5324 15.6091 62.4127C15.3459 62.2774 15.0568 62.2124 14.7658 62.2229C14.3433 62.2002 13.9265 62.3357 13.5851 62.6068C13.4432 62.7236 13.3288 62.8753 13.2514 63.0494C13.174 63.2236 13.1359 63.4152 13.1401 63.6085C13.1342 63.893 13.2313 64.1687 13.4104 64.3764C13.6862 64.6514 14.0104 64.8631 14.3634 64.9986C14.4447 65.0368 14.5599 65.0854 14.7089 65.1442C15.1505 65.3222 15.3713 65.5362 15.3713 65.7863C15.374 65.8706 15.3585 65.9544 15.3261 66.031C15.2936 66.1076 15.2451 66.1749 15.1844 66.2276C15.0356 66.345 14.8539 66.4027 14.6703 66.3908C14.4502 66.4011 14.2325 66.338 14.0464 66.2099C13.8813 66.0839 13.7637 65.8975 13.7152 65.6848L12.9023 66.1614C13.0385 66.4861 13.2643 66.7568 13.5486 66.9358C13.8674 67.116 14.2237 67.2034 14.5829 67.1896C15.0355 67.2175 15.4836 67.0792 15.855 66.7968C16.0061 66.6695 16.1269 66.5047 16.2072 66.3162C16.2874 66.1276 16.3249 65.921 16.3163 65.7135C16.3252 65.423 16.2347 65.1393 16.0623 64.917C15.829 64.6616 15.5446 64.4683 15.2311 64.3521Z" fill="white"/>
<path d="M18.5072 60.6431H17.5358V62.3906H16.79V63.315H17.5358V67.0042H18.5072V63.315H19.251V62.3906H18.5072V60.6431Z" fill="white"/>
<path d="M21.9994 62.2229C21.7016 62.2114 21.4048 62.2675 21.1281 62.3875C20.8513 62.5076 20.6006 62.689 20.392 62.9201C20.1833 63.1568 20.0204 63.4365 19.9129 63.7427C19.8055 64.0489 19.7555 64.3753 19.7661 64.7028C19.752 65.0326 19.7987 65.362 19.9033 65.6719C20.008 65.9819 20.1686 66.266 20.3758 66.5076C20.5887 66.7367 20.8432 66.9152 21.123 67.0318C21.4029 67.1484 21.7021 67.2006 22.0015 67.1849C22.4361 67.1965 22.8654 67.079 23.2431 66.8452C23.619 66.5917 23.9256 66.2336 24.1311 65.8082L23.3183 65.3118C23.1948 65.5899 23.0064 65.828 22.7717 66.0023C22.5349 66.1555 22.2627 66.232 21.9873 66.223C21.8305 66.2308 21.674 66.2025 21.528 66.1402C21.382 66.0778 21.2497 65.9828 21.1399 65.8611C20.9137 65.5815 20.7882 65.2227 20.7863 64.8506H24.184V64.6499C24.184 63.885 23.993 63.29 23.6109 62.8649C23.2289 62.4399 22.6917 62.2258 21.9994 62.2229ZM20.8391 64.1358C20.8925 63.8393 21.0356 63.5706 21.2455 63.3724C21.4676 63.1938 21.7397 63.1042 22.0157 63.1187C22.3018 63.1009 22.5846 63.193 22.8143 63.379C23.0177 63.5718 23.1432 63.8436 23.1639 64.1358H20.8391Z" fill="white"/>
<path d="M27.221 62.2227C26.9914 62.2148 26.7661 62.2927 26.583 62.4434C26.3928 62.6244 26.2522 62.8587 26.1765 63.1208V62.3772H25.2031V67.0108H26.1765V64.9808C26.1765 64.3189 26.2443 63.8474 26.3797 63.5665C26.4455 63.4307 26.5463 63.3186 26.6696 63.2438C26.793 63.1689 26.9337 63.1346 27.0747 63.145C27.1846 63.1436 27.2941 63.1592 27.3999 63.1914C27.4967 63.2223 27.5881 63.2708 27.6701 63.3348L28.0197 62.439C27.8944 62.3718 27.7629 62.3193 27.6275 62.2823C27.4947 62.2446 27.3582 62.2246 27.221 62.2227Z" fill="white"/>
<path d="M32.4639 62.8847C32.338 62.6708 32.1561 62.5025 31.9416 62.4015C31.6844 62.2851 31.4073 62.2294 31.1288 62.2382C30.7974 62.228 30.4686 62.3037 30.1696 62.4589C29.8896 62.622 29.6536 62.8615 29.4848 63.1539V62.3993H28.5703V67.0129H29.5437V64.9102C29.5378 64.6328 29.5521 64.3555 29.5864 64.0806C29.6071 63.9284 29.6584 63.783 29.7368 63.6547C29.8413 63.4875 29.9861 63.3547 30.1554 63.2708C30.3467 63.1765 30.555 63.1297 30.765 63.134C31.1118 63.134 31.353 63.234 31.4885 63.4341C31.6239 63.6341 31.6917 64.0372 31.6917 64.6432V67.0129H32.6732V64.2085C32.6813 63.9134 32.6649 63.618 32.6244 63.326C32.5958 63.1696 32.5414 63.0201 32.4639 62.8847Z" fill="white"/>
<path d="M37.9398 60.6431H36.9664V62.3906H36.2227V63.315H36.9664V67.0042H37.9398V63.315H38.6835V62.3906H37.9398V60.6431Z" fill="white"/>
<path d="M41.5472 62.2227C41.3175 62.2148 41.0923 62.2927 40.9091 62.4434C40.7189 62.6244 40.5783 62.8587 40.5027 63.1208V62.3772H39.5293V67.0108H40.4925V64.9808C40.4925 64.3189 40.5603 63.8474 40.6957 63.5665C40.7615 63.4307 40.8622 63.3186 40.9856 63.2438C41.109 63.1689 41.2497 63.1346 41.3907 63.145C41.5006 63.1436 41.61 63.1592 41.7158 63.1914C41.8127 63.2223 41.9041 63.2708 41.9861 63.3348L42.3356 62.439C42.2104 62.3718 42.0789 62.3193 41.9434 62.2823C41.814 62.2454 41.681 62.2254 41.5472 62.2227Z" fill="white"/>
<path d="M45.9265 63.1452C45.8209 62.8597 45.6307 62.6206 45.386 62.4656C45.0166 62.2531 44.5923 62.181 44.1809 62.261C43.7694 62.341 43.3945 62.5684 43.1161 62.9069C42.7473 63.4123 42.5596 64.0456 42.5877 64.6897C42.5877 65.4649 42.7604 66.0753 43.1059 66.521C43.2806 66.7421 43.4997 66.9168 43.7463 67.0315C43.9929 67.1463 44.2605 67.1981 44.5284 67.1829C44.8047 67.193 45.0787 67.1259 45.3243 66.988C45.5698 66.85 45.7786 66.6459 45.9306 66.3952V66.9932H46.9039V62.3906H45.9306L45.9265 63.1452ZM45.6237 65.8216C45.518 65.9547 45.3875 66.0621 45.2409 66.1368C45.0943 66.2115 44.9349 66.2517 44.773 66.2548C44.6111 66.2579 44.4504 66.2239 44.3014 66.1549C44.1525 66.086 44.0186 65.9837 43.9086 65.8546C43.7078 65.5148 43.602 65.1191 43.6042 64.7153C43.6064 64.3115 43.7163 63.9171 43.9208 63.5799C44.0267 63.4437 44.1601 63.3359 44.3105 63.2647C44.461 63.1935 44.6246 63.1609 44.7885 63.1695C44.9501 63.1603 45.1114 63.1916 45.2601 63.2608C45.4088 63.33 45.5408 63.4354 45.6461 63.5688C45.8667 63.889 45.9754 64.2839 45.9529 64.6831C45.971 65.0929 45.8543 65.4965 45.6237 65.8216Z" fill="white"/>
<path d="M51.2624 63.145C51.1569 62.8595 50.9667 62.6204 50.7219 62.4654C50.3526 62.2529 49.9283 62.1808 49.5168 62.2608C49.1054 62.3408 48.7305 62.5682 48.452 62.9067C48.0832 63.4121 47.8955 64.0455 47.9237 64.6895C47.9237 65.4647 48.0964 66.0752 48.4418 66.5209C48.6165 66.742 48.8356 66.9167 49.0822 67.0315C49.3288 67.1462 49.5964 67.198 49.8643 67.1829C50.1383 67.1944 50.4104 67.1299 50.655 66.9956C50.8996 66.8612 51.1087 66.6614 51.2624 66.415V67.013H52.2358V59.4624H51.2624V63.145ZM50.9617 65.8237C50.8555 65.9564 50.7247 66.0635 50.5778 66.1377C50.431 66.212 50.2714 66.2519 50.1095 66.2548C49.9475 66.2577 49.7868 66.2236 49.6378 66.1547C49.4887 66.0857 49.3548 65.9834 49.2445 65.8546C49.0437 65.5147 48.938 65.1189 48.9401 64.7152C48.9423 64.3114 49.0523 63.917 49.2567 63.5797C49.3626 63.4435 49.496 63.3357 49.6465 63.2645C49.797 63.1933 49.9605 63.1608 50.1244 63.1693C50.286 63.1601 50.4473 63.1914 50.596 63.2606C50.7447 63.3299 50.8768 63.4352 50.982 63.5687C51.2026 63.8889 51.3114 64.2838 51.2889 64.6829C51.3092 65.0924 51.1955 65.4965 50.9678 65.8237H50.9617Z" fill="white"/>
<path d="M55.503 62.2226C55.2059 62.2134 54.9103 62.2714 54.635 62.393C54.3596 62.5145 54.1106 62.697 53.9037 62.9287C53.6951 63.1654 53.5322 63.4451 53.4247 63.7513C53.3172 64.0575 53.2673 64.384 53.2779 64.7115C53.2637 65.0413 53.3104 65.3708 53.4151 65.6807C53.5197 65.9906 53.6804 66.2747 53.8875 66.5164C54.1004 66.7455 54.3549 66.924 54.6348 67.0406C54.9146 67.1572 55.2138 67.2094 55.5132 67.1938C55.9456 67.2048 56.3726 67.0881 56.7487 66.8562C57.1245 66.6026 57.4311 66.2446 57.6368 65.8191L56.8239 65.3227C56.7005 65.6009 56.512 65.839 56.2773 66.0133C56.0405 66.1665 55.7684 66.243 55.4929 66.234C55.3361 66.2417 55.1796 66.2135 55.0336 66.1512C54.8876 66.0888 54.7553 65.9937 54.6455 65.8721C54.4193 65.5925 54.2938 65.2336 54.2919 64.8615H57.6896V64.6497C57.6896 63.8848 57.4986 63.2898 57.1165 62.8647C56.7345 62.4396 56.1967 62.2256 55.503 62.2226ZM54.3427 64.1356C54.3963 63.8392 54.5393 63.5706 54.7491 63.3722C54.9712 63.1936 55.2433 63.104 55.5193 63.1185C55.8054 63.1006 56.0882 63.1928 56.3179 63.3788C56.5212 63.5716 56.6467 63.8434 56.6674 64.1356H54.3427Z" fill="white"/>
<path d="M64.4831 63.1452C64.3776 62.8597 64.1874 62.6206 63.9426 62.4656C63.5733 62.2531 63.149 62.181 62.7375 62.261C62.3261 62.341 61.9512 62.5684 61.6727 62.9069C61.3039 63.4123 61.1162 64.0456 61.1444 64.6897C61.1444 65.4649 61.3171 66.0753 61.6625 66.521C61.8372 66.7422 62.0563 66.9168 62.3029 67.0316C62.5495 67.1463 62.8171 67.1981 63.085 67.183C63.3613 67.1931 63.6354 67.126 63.8809 66.988C64.1264 66.8501 64.3352 66.646 64.4872 66.3953V67.0087C64.4872 67.472 64.3944 67.803 64.2088 68.0016C64.0232 68.2001 63.7245 68.2994 63.3126 68.2994C63.0855 68.3128 62.8592 68.2587 62.6583 68.1428C62.5844 68.0964 62.5223 68.0307 62.4776 67.9518C62.4329 67.8728 62.407 67.783 62.4022 67.6904H61.3577C61.3574 67.9026 61.4059 68.1114 61.4989 68.2979C61.5919 68.4844 61.7264 68.6427 61.8901 68.7584C62.3079 69.0467 62.7979 69.187 63.2923 69.1599C64.0781 69.1599 64.6369 68.9761 64.9688 68.6083C65.3007 68.2406 65.4667 67.6059 65.4667 66.7042V62.3906H64.4933L64.4831 63.1452ZM64.1804 65.8216C64.0746 65.9548 63.9442 66.0622 63.7976 66.1369C63.651 66.2115 63.4915 66.2517 63.3296 66.2548C63.1677 66.258 63.007 66.2239 62.8581 66.155C62.7091 66.086 62.5753 65.9837 62.4652 65.8547C62.2644 65.5149 62.1587 65.1191 62.1608 64.7153C62.163 64.3116 62.273 63.9171 62.4774 63.5799C62.5833 63.4437 62.7167 63.3359 62.8672 63.2647C63.0177 63.1935 63.1812 63.161 63.3451 63.1695C63.5067 63.1603 63.668 63.1916 63.8167 63.2608C63.9654 63.3301 64.0975 63.4354 64.2027 63.5688C64.4232 63.8891 64.5319 64.2839 64.5096 64.6831C64.5277 65.093 64.411 65.4965 64.1804 65.8216Z" fill="white"/>
<path d="M68.8265 62.2227C68.5968 62.2148 68.3716 62.2927 68.1884 62.4434C67.9982 62.6244 67.8576 62.8587 67.782 63.1208V62.3772H66.8086V67.0108H67.782V64.9808C67.782 64.3189 67.8497 63.8474 67.9852 63.5665C68.051 63.4307 68.1517 63.3186 68.2751 63.2438C68.3985 63.1689 68.5392 63.1346 68.6802 63.145C68.79 63.1436 68.8995 63.1592 69.0053 63.1914C69.1022 63.2223 69.1936 63.2708 69.2756 63.3348L69.6251 62.439C69.4998 62.3718 69.3684 62.3193 69.2329 62.2823C69.1002 62.2446 68.9637 62.2246 68.8265 62.2227Z" fill="white"/>
<path d="M73.8596 62.9594C73.6424 62.7243 73.3839 62.539 73.0995 62.4144C72.523 62.1679 71.8818 62.1679 71.3052 62.4144C71.0249 62.5354 70.7693 62.7154 70.5533 62.944C70.3364 63.1715 70.1636 63.4438 70.0453 63.745C69.929 64.0477 69.8691 64.3724 69.8691 64.7004C69.8691 65.0284 69.929 65.3532 70.0453 65.6559C70.2898 66.2682 70.7448 66.7527 71.3133 67.0063C71.8858 67.2562 72.525 67.2562 73.0975 67.0063C73.3864 66.8781 73.6499 66.6908 73.8738 66.4547C74.0904 66.2313 74.262 65.9616 74.3778 65.6625C74.4937 65.359 74.5524 65.0334 74.5505 64.7048C74.5515 64.3819 74.492 64.0621 74.3757 63.7648C74.2555 63.4613 74.0799 63.1873 73.8596 62.9594ZM73.1361 65.7993C73.0181 65.9395 72.8745 66.0514 72.7144 66.128C72.5543 66.2045 72.3813 66.2441 72.2064 66.2441C72.0315 66.2441 71.8585 66.2045 71.6985 66.128C71.5384 66.0514 71.3948 65.9395 71.2767 65.7993C71.0301 65.5003 70.8937 65.1129 70.8937 64.7115C70.8937 64.31 71.0301 63.9227 71.2767 63.6236C71.395 63.4834 71.5388 63.3715 71.699 63.2949C71.8592 63.2183 72.0324 63.1787 72.2074 63.1787C72.3825 63.1787 72.5557 63.2183 72.7159 63.2949C72.8761 63.3715 73.0199 63.4834 73.1382 63.6236C73.3844 63.9229 73.5205 64.3102 73.5205 64.7115C73.5205 65.1128 73.3844 65.5 73.1382 65.7993H73.1361Z" fill="white"/>
<path d="M78.6867 64.9899C78.6867 65.4312 78.6013 65.7527 78.4306 65.9542C78.1889 66.1424 77.8989 66.2437 77.6015 66.2437C77.3041 66.2437 77.0141 66.1424 76.7724 65.9542C76.6017 65.76 76.5164 65.4386 76.5164 64.9899V62.3906H75.543V64.6722C75.543 65.5548 75.7055 66.1969 76.0307 66.5985C76.3558 67.0001 76.8815 67.1979 77.6076 67.1921C78.3216 67.1921 78.8411 66.9927 79.1662 66.5941C79.4914 66.1954 79.6539 65.5548 79.6539 64.6722V62.3906H78.6806L78.6867 64.9899Z" fill="white"/>
<path d="M83.3828 62.2229C83.0704 62.2135 82.7615 62.2958 82.4886 62.4612C82.2431 62.6153 82.0516 62.8535 81.944 63.1385V62.384H80.9727V69.1661H81.9481V66.4149C82.1001 66.6656 82.3088 66.8697 82.5544 67.0076C82.7999 67.1455 83.074 67.2126 83.3502 67.2025C83.6182 67.2177 83.8858 67.1659 84.1324 67.0511C84.379 66.9364 84.5981 66.7617 84.7727 66.5406C85.1182 66.0994 85.2909 65.4889 85.2909 64.7094C85.3191 64.0657 85.1321 63.4327 84.7646 62.9267C84.6002 62.7013 84.3898 62.5204 84.15 62.3982C83.9102 62.2761 83.6475 62.2161 83.3828 62.2229ZM83.9639 65.8478C83.8597 65.9814 83.7284 66.087 83.5804 66.1562C83.4323 66.2255 83.2715 66.2566 83.1105 66.2472C82.9452 66.2531 82.781 66.2175 82.6305 66.1433C82.48 66.069 82.3473 65.9581 82.2427 65.8192C82.0109 65.4931 81.8941 65.0877 81.9135 64.6763C81.8911 64.2768 82.0006 63.8818 82.2224 63.5621C82.3342 63.4351 82.4687 63.3343 82.6177 63.2659C82.7666 63.1974 82.9269 63.1627 83.0887 63.1639C83.2505 63.1652 83.4103 63.2023 83.5584 63.2731C83.7064 63.3438 83.8396 63.4467 83.9497 63.5754C84.1538 63.9127 84.2636 64.3069 84.2662 64.7104C84.2687 65.114 84.1637 65.5097 83.9639 65.85V65.8478Z" fill="white"/>
<path d="M81.0727 17.006H75.0841V2.11694H67.2543V17.006H61.2656V24.8874H67.2543V56.327H75.0841V24.8874H81.0727V17.006Z" fill="white"/>
<path d="M112.173 17.0081V23.4377C111.259 20.9209 109.81 18.9925 107.826 17.6524C105.843 16.3124 103.456 15.6416 100.665 15.6401C96.0943 15.6401 92.3904 17.5686 89.5536 21.4254C86.7167 25.2823 85.2943 30.349 85.2861 36.6256C85.2861 43.2347 86.6754 48.4397 89.454 52.2406C92.2326 56.0416 96.0388 57.9428 100.873 57.9443C103.277 57.9443 105.412 57.3912 107.276 56.285C109.14 55.1789 110.77 53.4924 112.165 51.2257L112.094 56.4527C112.07 60.4067 111.324 63.2273 109.859 64.9145C108.393 66.6017 105.987 67.4453 102.643 67.4453C100.381 67.4453 98.6257 67.004 97.3752 66.1214C96.1248 65.2388 95.4393 63.9532 95.3187 62.2645L86.9118 62.3064C86.9592 66.0942 88.3905 69.1288 91.2057 71.4102C94.0209 73.6917 97.7851 74.8324 102.498 74.8324C108.824 74.8324 113.321 73.2629 115.992 70.1239C118.662 66.9848 119.997 61.5724 119.997 53.8866V17.0081H112.173ZM109.735 46.2479C107.973 48.7089 105.683 49.9393 102.862 49.9393C99.8815 49.9393 97.5724 48.8059 95.9345 46.5392C94.2966 44.2724 93.479 41.051 93.4817 36.875C93.4817 32.7268 94.3298 29.4848 96.0259 27.149C97.7221 24.8131 100.05 23.6451 103.008 23.6451C105.967 23.6451 108.27 24.7785 109.918 27.0452C111.565 29.312 112.389 32.4746 112.389 36.533C112.39 40.5487 111.507 43.787 109.739 46.2479H109.735Z" fill="white"/>
<path d="M61.8484 52.7129L52.2324 35.5467L44.2583 57.3442L31.3747 24.1968L19.4014 57.3442L10.9214 34.0574L0.415288 52.7129C0.152227 53.183 0.00904345 53.7207 0.000414498 54.2707C-0.00821445 54.8208 0.118022 55.3634 0.366183 55.843C0.614344 56.3227 0.975504 56.722 1.41264 57.0001C1.84978 57.2783 2.34717 57.4252 2.85384 57.4258H59.4058C59.9128 57.426 60.4107 57.2796 60.8484 57.0018C61.2861 56.724 61.6478 56.3247 61.8965 55.845C62.1451 55.3652 62.2717 54.8223 62.2633 54.2718C62.2548 53.7214 62.1116 53.1833 61.8484 52.7129Z" fill="white"/>
<path d="M31.3466 7.21618L43.7873 39.9376L47.821 27.6698L33.647 2.37526C33.3918 1.92151 33.0336 1.54657 32.6065 1.28643C32.1795 1.02628 31.6981 0.889648 31.2085 0.889648C30.7188 0.889648 30.2374 1.02628 29.8104 1.28643C29.3833 1.54657 29.0251 1.92151 28.7699 2.37526L15.3579 26.2048L20.1578 39.9685L31.3466 7.21618Z" fill="white"/>
<path d="M116.096 2.15002C116.617 2.14641 117.134 2.25516 117.616 2.46997C118.095 2.68623 118.528 3.00775 118.888 3.41436C119.244 3.80092 119.525 4.26078 119.715 4.76695C119.906 5.2778 120.002 5.82428 119.999 6.37549C120.003 6.93836 119.904 7.49641 119.707 8.01714C119.513 8.52737 119.223 8.98858 118.857 9.37193C118.488 9.76417 118.054 10.0764 117.577 10.292C117.109 10.5043 116.606 10.613 116.098 10.612C115.587 10.613 115.08 10.5011 114.61 10.2832C113.659 9.835 112.902 9.00722 112.497 7.9708C112.304 7.45964 112.206 6.91209 112.208 6.35961C112.21 5.80713 112.313 5.26062 112.511 4.7515C112.714 4.22694 113.011 3.75087 113.383 3.35037C113.735 2.96353 114.155 2.65804 114.618 2.45232C115.088 2.24852 115.59 2.14585 116.096 2.15002ZM116.096 2.7855C115.664 2.78106 115.236 2.86878 114.836 3.04366C114.442 3.22076 114.085 3.48187 113.785 3.81153C113.471 4.15615 113.218 4.56181 113.041 5.00746C112.87 5.44168 112.781 5.90945 112.781 6.38211C112.783 6.84915 112.87 7.3112 113.037 7.74132C113.203 8.17504 113.445 8.56934 113.751 8.90195C114.056 9.24429 114.42 9.51862 114.822 9.70953C115.206 9.89204 115.621 9.98739 116.041 9.98975C116.488 9.98953 116.93 9.89434 117.344 9.70953C117.754 9.52917 118.128 9.26218 118.443 8.92401C118.751 8.60285 118.996 8.21704 119.163 7.78996C119.33 7.36289 119.416 6.90344 119.414 6.43948C119.418 5.95721 119.336 5.47865 119.174 5.02952C119.014 4.59178 118.774 4.1934 118.469 3.85786C118.157 3.5184 117.787 3.24789 117.38 3.06131C116.975 2.87724 116.541 2.78344 116.102 2.7855H116.096ZM114.505 3.92847H116.185C116.792 3.92847 117.252 4.03659 117.565 4.25283C117.715 4.35256 117.838 4.49423 117.921 4.66306C118.003 4.83189 118.042 5.0217 118.034 5.21266C118.052 5.52345 117.962 5.83024 117.782 6.07248C117.602 6.31472 117.345 6.4748 117.061 6.52112L118.034 8.67026H116.988L116.122 6.6844H115.441V8.67026H114.505V3.92847ZM115.441 4.56836V6.05996H116.051C116.318 6.08163 116.585 6.02121 116.821 5.88565C116.903 5.82492 116.968 5.74201 117.011 5.6452C117.054 5.5484 117.072 5.4411 117.065 5.33402C117.072 5.22183 117.052 5.10968 117.007 5.00815C116.963 4.90663 116.895 4.81906 116.811 4.75371C116.562 4.60832 116.28 4.54397 115.998 4.56836H115.441Z" fill="white"/>
</svg>
