<svg width="18" height="18" viewBox="0 0 18 18" fill="none" xmlns="http://www.w3.org/2000/svg">
<path d="M0.375367 3.34533C2.8458 5.43751 7.18063 9.1183 8.45469 10.266C8.62573 10.4209 8.80918 10.4996 8.99962 10.4996C9.18967 10.4996 9.3728 10.4216 9.54345 10.2675C10.8186 9.11865 15.1534 5.43751 17.6239 3.34533C17.7777 3.21532 17.8012 2.9868 17.6766 2.82786C17.3888 2.46059 16.9596 2.25 16.4996 2.25H1.49963C1.03968 2.25 0.610457 2.46059 0.322632 2.8279C0.198109 2.9868 0.221558 3.21532 0.375367 3.34533Z" fill="#007BFF"/>
<path d="M17.7821 4.47917C17.6492 4.4173 17.4928 4.43889 17.3822 4.53339C15.7643 5.90483 13.6326 7.71685 12.0249 9.09966C11.9404 9.17218 11.8928 9.27874 11.8946 9.39043C11.8964 9.50177 11.9481 9.60685 12.0352 9.67643C13.529 10.8728 15.7801 12.5186 17.4057 13.6883C17.4705 13.7351 17.5474 13.7589 17.6247 13.7589C17.6833 13.7589 17.7418 13.7454 17.7957 13.7176C17.921 13.6535 17.9997 13.5246 17.9997 13.3839V4.81938C17.9996 4.67327 17.9147 4.54035 17.7821 4.47917Z" fill="#007BFF"/>
<path d="M0.594 13.6882C2.21998 12.5185 4.47145 10.8728 5.96486 9.67635C6.05201 9.60677 6.10365 9.50166 6.10548 9.39035C6.10731 9.27866 6.05971 9.1721 5.97512 9.09958C4.36743 7.71677 2.23534 5.90475 0.617449 4.53331C0.506109 4.43881 0.349383 4.41796 0.217547 4.4791C0.0849727 4.54027 0 4.67319 0 4.8193V13.3839C0 13.5245 0.07875 13.6534 0.203977 13.7175C0.257801 13.7454 0.316406 13.7589 0.375012 13.7589C0.452285 13.7589 0.529172 13.7351 0.594 13.6882Z" fill="#007BFF"/>
<path d="M17.5405 14.7085C15.9705 13.5854 13.0785 11.4914 11.3522 10.0902C11.2116 9.97561 11.008 9.97927 10.8696 10.0987C10.5308 10.3942 10.2474 10.6432 10.0463 10.8241C9.42885 11.3815 8.57192 11.3815 7.95303 10.8234C7.75271 10.6428 7.46928 10.3931 7.13051 10.0986C6.99319 9.97849 6.78922 9.97484 6.64821 10.0902C4.92773 11.4866 2.03247 13.5831 0.459966 14.7085C0.372427 14.7715 0.316037 14.8685 0.305068 14.9758C0.294451 15.0831 0.329959 15.1897 0.403576 15.2688C0.687427 15.5746 1.08733 15.75 1.50006 15.75H16.5001C16.9128 15.75 17.3123 15.5746 17.5969 15.2688C17.6701 15.1901 17.706 15.0835 17.6954 14.9762C17.6844 14.8689 17.628 14.7715 17.5405 14.7085Z" fill="#007BFF"/>
</svg>
