<svg width="14" height="14" viewBox="0 0 14 14" fill="none" xmlns="http://www.w3.org/2000/svg">
<path d="M0.292169 2.60192C2.21361 4.22918 5.58515 7.09201 6.57609 7.98465C6.70912 8.10512 6.8518 8.16637 6.99992 8.16637C7.14774 8.16637 7.29017 8.1057 7.4229 7.9858C8.41469 7.09228 11.7862 4.22918 13.7077 2.60192C13.8273 2.5008 13.8456 2.32307 13.7487 2.19945C13.5248 1.91379 13.191 1.75 12.8332 1.75H1.16659C0.808857 1.75 0.475017 1.91379 0.251153 2.19948C0.154302 2.32307 0.17254 2.5008 0.292169 2.60192Z" fill="white"/>
<path d="M13.8307 3.48377C13.7273 3.43564 13.6057 3.45243 13.5197 3.52593C12.2613 4.59261 10.6033 6.00196 9.3529 7.07747C9.28711 7.13388 9.25008 7.21676 9.2515 7.30363C9.25293 7.39023 9.29309 7.47196 9.36088 7.52607C10.5227 8.45661 12.2736 9.73665 13.5379 10.6464C13.5883 10.6829 13.6481 10.7014 13.7082 10.7014C13.7538 10.7014 13.7994 10.6908 13.8413 10.6692C13.9387 10.6193 13.9999 10.5191 13.9999 10.4097V3.74837C13.9999 3.63473 13.9338 3.53134 13.8307 3.48377Z" fill="white"/>
<path d="M0.462 10.6464C1.72665 9.73661 3.4778 8.4566 4.63933 7.52604C4.70712 7.47192 4.74729 7.39017 4.74871 7.30359C4.75013 7.21672 4.71311 7.13384 4.64732 7.07743C3.39689 6.00192 1.7386 4.59257 0.480238 3.52589C0.393641 3.45239 0.271742 3.43618 0.169203 3.48373C0.0660899 3.53131 0 3.63469 0 3.74833V10.4097C0 10.5191 0.06125 10.6193 0.158648 10.6692C0.200512 10.6908 0.246094 10.7014 0.291676 10.7014C0.351777 10.7014 0.411578 10.6828 0.462 10.6464Z" fill="white"/>
<path d="M13.6426 11.44C12.4215 10.5664 10.1722 8.93773 8.8295 7.84794C8.72013 7.7588 8.56175 7.76165 8.4541 7.85451C8.19064 8.08436 7.97017 8.27806 7.81379 8.41874C7.33355 8.85225 6.66705 8.85225 6.18569 8.41817C6.02989 8.27776 5.80944 8.08348 5.54596 7.85448C5.43915 7.76104 5.2805 7.7582 5.17083 7.84792C3.83268 8.93398 1.58081 10.5646 0.357752 11.4399C0.289666 11.4889 0.245806 11.5644 0.237275 11.6479C0.229017 11.7313 0.256634 11.8142 0.313892 11.8757C0.534666 12.1136 0.845701 12.25 1.16672 12.25H12.8334C13.1544 12.25 13.4651 12.1136 13.6865 11.8757C13.7434 11.8145 13.7713 11.7316 13.7631 11.6482C13.7545 11.5647 13.7107 11.489 13.6426 11.44Z" fill="white"/>
</svg>
