<svg width="30" height="30" viewBox="0 0 30 30" fill="none" xmlns="http://www.w3.org/2000/svg">
<g clip-path="url(#clip0_341_735)">
<path d="M4.28 29.0625C4.28 29.78 5.0525 30.2287 5.6775 29.88L10.7913 27.0012C15.5213 28.2812 20.605 27.34 24.47 24.4563C27.9838 21.835 30 17.9425 30 13.7775C30 6.18 23.2712 0 15 0C6.72875 0 0 6.18 0 13.7775C0 17.4225 1.51625 20.8238 4.28 23.4013V29.0625ZM1.875 13.7775C1.875 7.21375 7.7625 1.875 15 1.875C22.2375 1.875 28.125 7.21375 28.125 13.7775C28.125 17.345 26.3838 20.69 23.3488 22.9538C19.85 25.5625 15.2088 26.3638 10.9388 25.0938C10.695 25.0213 10.4325 25.0512 10.2112 25.175L6.15375 27.4587V22.985C6.15375 22.7163 6.0375 22.4588 5.83625 22.2812C3.28125 20.0338 1.875 17.0138 1.875 13.7775Z" fill="#008DFE"/>
<path d="M6.04362 18.9638L12.9299 15.52L16.2024 18.8825C16.6311 19.3238 17.2274 19.205 17.5424 18.8875L25.0424 11.2838C25.7861 10.5288 24.8924 9.30879 23.9486 9.79004L17.0624 13.305L13.7949 9.96879C13.4461 9.61379 12.8499 9.57504 12.4624 9.96254L4.96237 17.4625C4.21237 18.2125 5.09987 19.4375 6.04362 18.9638ZM13.1186 11.9575L16.2061 15.1088C16.4936 15.4025 16.9386 15.4738 17.3011 15.2875L19.6336 14.0975L16.8799 16.8888L13.7974 13.72C13.5124 13.4263 13.0699 13.3538 12.7061 13.535L10.3736 14.7013L13.1186 11.9575Z" fill="#008DFE"/>
</g>
<defs>
<clipPath id="clip0_341_735">
<rect width="30" height="30" fill="white"/>
</clipPath>
</defs>
</svg>
