<svg width="13" height="20" viewBox="0 0 13 20" fill="none" xmlns="http://www.w3.org/2000/svg">
<path d="M10.525 0H2.51792C1.15664 0 0 0.936609 0 2.08497V17.9174C0 19.0658 1.13217 20 2.49345 20L10.5137 19.9927C11.8748 19.9927 12.9883 19.0583 12.9883 17.9098L13 2.08386C12.9998 0.931367 11.8917 0 10.525 0ZM5.36472 1.25003H7.6878C7.89187 1.25003 8.0581 1.38982 8.0581 1.5625C8.0581 1.73517 7.89187 1.87497 7.6878 1.87497H5.36472C5.16009 1.87497 4.99442 1.73517 4.99442 1.5625C4.99442 1.38982 5.16009 1.25003 5.36472 1.25003ZM3.96881 1.34947C4.10605 1.23383 4.35586 1.23224 4.49291 1.34947C4.56163 1.4073 4.60229 1.48847 4.60229 1.57139C4.60229 1.65273 4.56163 1.73374 4.49291 1.79173C4.42458 1.84971 4.328 1.88386 4.2318 1.88386C4.13372 1.88386 4.0394 1.84971 3.96881 1.79173C3.90047 1.7339 3.8615 1.65273 3.8615 1.57139C3.86131 1.48847 3.90047 1.4073 3.96881 1.34947ZM6.45152 19.3806C5.84045 19.3806 5.34345 18.9609 5.34345 18.4454C5.34345 17.9298 5.84045 17.5103 6.45152 17.5103C7.0626 17.5103 7.5596 17.9298 7.5596 18.4454C7.5596 18.9609 7.06241 19.3806 6.45152 19.3806ZM11.8505 16.8747H1.29614V2.96884H11.8505V16.8747Z" fill="white"/>
</svg>
