<svg width="18" height="19" viewBox="0 0 18 19" fill="none" xmlns="http://www.w3.org/2000/svg">
<path d="M17.528 13.238L15.0108 10.7207C14.1117 9.82173 12.5834 10.1814 12.2238 11.3501C11.9541 12.1592 11.0551 12.6087 10.246 12.4289C8.44795 11.9794 6.02061 9.64192 5.57111 7.75399C5.3014 6.94485 5.84081 6.04583 6.64992 5.77616C7.81864 5.41656 8.17825 3.88824 7.27923 2.98922L4.76199 0.471982C4.04278 -0.157327 2.96397 -0.157327 2.33466 0.471982L0.626529 2.18011C-1.0816 3.97814 0.806332 8.74291 5.0317 12.9683C9.25706 17.1936 14.0218 19.1715 15.8199 17.3734L17.528 15.6653C18.1573 14.9461 18.1573 13.8673 17.528 13.238Z" fill="#007BFF"/>
</svg>
