<svg width="40" height="32" viewBox="0 0 40 32" fill="none" xmlns="http://www.w3.org/2000/svg">
<path d="M0.412277 0.599235C0.625798 0.415157 0.923669 0.35386 1.19228 0.438681L23.7511 7.55749C24.1643 7.68788 24.2667 8.09977 24.1244 8.5C23.982 8.90014 23.6488 9.13716 23.2355 9.00685L5.17699 3.30818L28.2023 18.1571L37.0535 13.3674L23.2355 9.00685C22.8223 8.87639 22.6027 8.44628 22.7451 8.04605C22.8874 7.64591 23.3378 7.42702 23.7511 7.55749L39.2653 12.4533C39.5617 12.5469 39.7699 12.801 39.7961 13.1015C39.8223 13.402 39.6615 13.692 39.3863 13.8409L28.8157 19.561L25.6967 29.3141C25.6934 29.3243 25.6897 29.333 25.6856 29.3409C25.631 29.4915 25.5297 29.6267 25.3879 29.7225C25.2991 29.7824 25.2011 29.8233 25.0997 29.845C24.901 29.8875 24.6897 29.8559 24.5124 29.7488L17.6452 25.6056L7.55885 31.0636C7.48908 31.1013 7.41502 31.1284 7.33905 31.1446C7.175 31.1797 7.00229 31.1643 6.84675 31.0973C6.61916 30.9992 6.45515 30.8021 6.40478 30.5663L0.159191 1.32898C0.102123 1.06183 0.198739 0.783239 0.412277 0.599235ZM23.896 21.0913C24.0123 21.1966 24.092 21.3341 24.1244 21.4855L25.0965 26.0363L27.2263 19.3764L8.99453 7.6189L23.896 21.0913ZM23.7877 27.4994L22.7886 22.8224L19.2288 24.7487L23.7877 27.4994ZM7.74051 29.2295L22.0192 21.5029L2.27715 3.65397L7.74051 29.2295Z" fill="#90CCEC"/>
</svg>
