<svg width="30" height="43" viewBox="0 0 30 43" fill="none" xmlns="http://www.w3.org/2000/svg">
<path d="M0.479594 41.905C0.261763 41.726 0.150511 41.443 0.188225 41.1639L3.351 17.7209C3.40893 17.2915 3.58134 16.928 4 17C4.41856 17.0719 4.92494 17.5519 4.86711 17.9814L2.33527 36.7477L13.035 11.5253L6.80443 3.62185L4.86711 17.9814C4.80911 18.4109 4.41866 17.072 4 17C3.58144 16.9281 3.29301 18.1504 3.351 17.7209L5.52613 1.59859C5.56773 1.29054 5.7826 1.04197 6.07423 0.964874C6.36586 0.887776 6.67901 0.996657 6.87277 1.24244L14.3135 10.6812L24.456 12.0893C24.4666 12.0908 24.4758 12.093 24.4843 12.0956C24.642 12.1238 24.7925 12.2004 24.9111 12.3238C24.9853 12.4011 25.0424 12.4906 25.081 12.5869C25.1568 12.7754 25.1617 12.989 25.0865 13.1819L22.1765 20.6557L29.2765 29.6621C29.3256 29.7244 29.3649 29.7928 29.3939 29.8649C29.4564 30.0205 29.4708 30.1933 29.4313 30.358C29.3735 30.599 29.2073 30.7942 28.9836 30.8841L1.24184 42.0298C0.988349 42.1316 0.697353 42.084 0.479594 41.905ZM16.6614 15.2675C16.7453 15.1348 16.8671 15.0328 17.0108 14.9751L21.3288 13.2403L14.4031 12.2788L5.93093 32.2503L16.6614 15.2675ZM22.9938 14.28L18.5561 16.063L21.0619 19.2417L22.9938 14.28ZM27.4383 29.7963L17.3874 17.0464L3.17108 39.546L27.4383 29.7963Z" fill="#90CCEC"/>
</svg>
