<svg width="35" height="36" viewBox="0 0 35 36" fill="none" xmlns="http://www.w3.org/2000/svg">
<path d="M33.9489 35.0564C34.0853 34.8203 34.0841 34.5292 33.946 34.2942L22.3512 14.5547C22.1388 14.1931 21.7147 14.1779 21.3522 14.3897C20.9897 14.6015 20.8261 14.9601 21.0384 15.3218L30.3202 31.1234L11.064 12.4621L13.9362 3.23072L21.0384 15.3218C21.2509 15.6834 21.7169 15.8048 22.0794 15.5929C22.4418 15.3812 22.5637 14.9163 22.3512 14.5547L14.3771 0.979359C14.2248 0.71999 13.9333 0.574716 13.6338 0.609096C13.3343 0.643476 13.0835 0.85091 12.9942 1.13799L9.56408 12.1625L0.658111 16.9964C0.648885 17.0014 0.641109 17.0066 0.634164 17.012C0.497969 17.0927 0.386482 17.2141 0.321817 17.3657C0.281342 17.4606 0.261392 17.5605 0.260992 17.6597C0.260208 17.8542 0.334443 18.046 0.475583 18.1911L5.93939 23.8127L2.66639 34.3322C2.6438 34.405 2.63247 34.4797 2.63217 34.554C2.63153 34.7146 2.68201 34.8734 2.77953 35.006C2.92223 35.2 3.14869 35.315 3.38984 35.316L33.2866 35.4366C33.5598 35.4377 33.8126 35.2926 33.9489 35.0564ZM9.07543 17.0717C8.94852 16.9833 8.79763 16.9356 8.64282 16.935L3.98935 16.9162L10.0707 13.6154L25.3181 28.3918L9.07543 17.0717ZM2.82585 18.4291L7.60834 18.4484L6.45316 22.1612L2.82585 18.4291ZM4.42425 33.8025L9.0576 18.9107L30.5766 33.908L4.42425 33.8025Z" fill="#90CCEC"/>
</svg>
