<svg width="15" height="17" viewBox="0 0 15 17" fill="none" xmlns="http://www.w3.org/2000/svg">
<circle cx="7.5" cy="8.5" r="7.5" fill="white"/>
<path d="M6.964 10.127C6.964 9.78033 7.02033 9.477 7.133 9.217C7.25433 8.94833 7.39733 8.723 7.562 8.541C7.73533 8.359 7.96067 8.14233 8.238 7.891C8.58467 7.58767 8.84033 7.32767 9.005 7.111C9.16967 6.88567 9.252 6.617 9.252 6.305C9.252 5.88033 9.08733 5.54233 8.758 5.291C8.42867 5.031 7.97367 4.901 7.393 4.901C6.379 4.901 5.60333 5.24333 5.066 5.928L4.117 5.252C4.481 4.784 4.94467 4.42433 5.508 4.173C6.08 3.92167 6.73867 3.796 7.484 3.796C8.42867 3.796 9.17833 4.004 9.733 4.42C10.2877 4.82733 10.565 5.39067 10.565 6.11C10.565 6.46533 10.5043 6.78167 10.383 7.059C10.2703 7.32767 10.1317 7.553 9.967 7.735C9.80233 7.917 9.58133 8.13367 9.304 8.385C8.94867 8.70567 8.68433 8.98733 8.511 9.23C8.34633 9.47267 8.264 9.77167 8.264 10.127H6.964ZM7.627 13.078C7.38433 13.078 7.18067 13 7.016 12.844C6.86 12.6793 6.782 12.48 6.782 12.246C6.782 12.012 6.86 11.817 7.016 11.661C7.18067 11.4963 7.38433 11.414 7.627 11.414C7.86967 11.414 8.069 11.4963 8.225 11.661C8.381 11.817 8.459 12.012 8.459 12.246C8.459 12.48 8.37667 12.6793 8.212 12.844C8.056 13 7.861 13.078 7.627 13.078Z" fill="#242424"/>
</svg>
