<svg width="119" height="20" viewBox="0 0 119 20" fill="none" xmlns="http://www.w3.org/2000/svg">
<path d="M9.52447 1.46353C9.67415 1.00287 10.3259 1.00287 10.4755 1.46353L12.1329 6.56434C12.1998 6.77035 12.3918 6.90983 12.6084 6.90983H17.9717C18.4561 6.90983 18.6575 7.52964 18.2656 7.81434L13.9266 10.9668C13.7514 11.0941 13.678 11.3198 13.745 11.5258L15.4023 16.6266C15.552 17.0873 15.0248 17.4704 14.6329 17.1857L10.2939 14.0332C10.1186 13.9059 9.88135 13.9059 9.70611 14.0332L5.3671 17.1857C4.97524 17.4704 4.448 17.0873 4.59768 16.6266L6.25503 11.5258C6.32197 11.3198 6.24864 11.0941 6.07339 10.9668L1.73438 7.81434C1.34253 7.52964 1.54392 6.90983 2.02828 6.90983H7.39159C7.6082 6.90983 7.80018 6.77035 7.86712 6.56434L9.52447 1.46353Z" fill="#2B66FA"/>
<path d="M58.8897 1.46353C59.0394 1.00287 59.6911 1.00287 59.8408 1.46353L61.4981 6.56434C61.5651 6.77035 61.757 6.90983 61.9736 6.90983H67.337C67.8213 6.90983 68.0227 7.52964 67.6308 7.81434L63.2918 10.9668C63.1166 11.0941 63.0433 11.3198 63.1102 11.5258L64.7676 16.6266C64.9172 17.0873 64.39 17.4704 63.9981 17.1857L59.6591 14.0332C59.4839 13.9059 59.2466 13.9059 59.0713 14.0332L54.7323 17.1857C54.3405 17.4704 53.8132 17.0873 53.9629 16.6266L55.6203 11.5258C55.6872 11.3198 55.6139 11.0941 55.4386 10.9668L51.0996 7.81434C50.7078 7.52964 50.9091 6.90983 51.3935 6.90983H56.7568C56.9734 6.90983 57.1654 6.77035 57.2324 6.56434L58.8897 1.46353Z" fill="#2B66FA"/>
<path d="M34.2071 1.46353C34.3568 1.00287 35.0085 1.00287 35.1581 1.46353L36.8155 6.56434C36.8824 6.77035 37.0744 6.90983 37.291 6.90983H42.6543C43.1387 6.90983 43.3401 7.52964 42.9482 7.81434L38.6092 10.9668C38.434 11.0941 38.3607 11.3198 38.4276 11.5258L40.0849 16.6266C40.2346 17.0873 39.7074 17.4704 39.3155 17.1857L34.9765 14.0332C34.8013 13.9059 34.564 13.9059 34.3887 14.0332L30.0497 17.1857C29.6579 17.4704 29.1306 17.0873 29.2803 16.6266L30.9376 11.5258C31.0046 11.3198 30.9313 11.0941 30.756 10.9668L26.417 7.81434C26.0251 7.52964 26.2265 6.90983 26.7109 6.90983H32.0742C32.2908 6.90983 32.4828 6.77035 32.5497 6.56434L34.2071 1.46353Z" fill="#2B66FA"/>
<path d="M83.5723 1.46353C83.722 1.00287 84.3737 1.00287 84.5234 1.46353L86.1807 6.56434C86.2477 6.77035 86.4396 6.90983 86.6563 6.90983H92.0196C92.5039 6.90983 92.7053 7.52964 92.3135 7.81434L87.9745 10.9668C87.7992 11.0941 87.7259 11.3198 87.7928 11.5258L89.4502 16.6266C89.5999 17.0873 89.0726 17.4704 88.6808 17.1857L84.3417 14.0332C84.1665 13.9059 83.9292 13.9059 83.754 14.0332L79.4149 17.1857C79.0231 17.4704 78.4959 17.0873 78.6455 16.6266L80.3029 11.5258C80.3698 11.3198 80.2965 11.0941 80.1212 10.9668L75.7822 7.81434C75.3904 7.52964 75.5918 6.90983 76.0761 6.90983H81.4394C81.6561 6.90983 81.848 6.77035 81.915 6.56434L83.5723 1.46353Z" fill="#2B66FA"/>
<path d="M108.255 1.46353C108.405 1.00287 109.056 1.00287 109.206 1.46353L110.863 6.56434C110.93 6.77035 111.122 6.90983 111.339 6.90983H116.702C117.187 6.90983 117.388 7.52964 116.996 7.81434L112.657 10.9668C112.482 11.0941 112.409 11.3198 112.475 11.5258L114.133 16.6266C114.282 17.0873 113.755 17.4704 113.363 17.1857L109.024 14.0332C108.849 13.9059 108.612 13.9059 108.437 14.0332L104.098 17.1857C103.706 17.4704 103.178 17.0873 103.328 16.6266L104.985 11.5258C105.052 11.3198 104.979 11.0941 104.804 10.9668L100.465 7.81434C100.073 7.52964 100.274 6.90983 100.759 6.90983H106.122C106.339 6.90983 106.531 6.77035 106.598 6.56434L108.255 1.46353Z" fill="#2B66FA"/>
</svg>
