<svg width="30" height="30" viewBox="0 0 30 30" fill="none" xmlns="http://www.w3.org/2000/svg">
<g clip-path="url(#clip0_341_726)">
<path d="M28.9436 17.3663C29.8386 9.83253 28.5136 5.07628 26.1236 2.92503L26.1249 2.92378C22.2674 -0.749969 9.23985 -1.29372 4.62486 3.08878C2.55236 5.23253 1.82236 8.37878 1.74236 12.2738C1.66236 16.17 1.56736 23.4688 8.36861 25.4488H8.37485L8.36861 28.4725C8.36861 28.4725 8.32235 29.6975 9.10485 29.9438C9.99986 30.2338 10.4049 29.665 13.1886 26.34C17.8436 26.7438 21.4186 25.8188 21.8249 25.6838C22.7649 25.3688 28.0836 24.665 28.9436 17.3663ZM13.6474 24.2125C13.6474 24.2125 10.7011 27.8863 9.78485 28.84C9.48485 29.15 9.1561 29.1213 9.1611 28.5063C9.1611 28.1025 9.18361 23.4863 9.18361 23.4863C3.41736 21.8338 3.75735 15.6188 3.81986 12.3675C3.88236 9.11503 4.47736 6.45128 6.23236 4.65753C10.2811 0.861281 21.7024 1.71003 24.6124 4.44503C28.1699 7.59878 26.9036 16.5088 26.9111 16.8125C26.1799 22.905 21.8699 23.2913 21.0774 23.555C20.7386 23.6675 17.5949 24.4763 13.6474 24.2125Z" fill="#8E24AA"/>
<path d="M15.2774 5.37134C14.7962 5.37134 14.7962 6.12134 15.2774 6.12759C19.0112 6.15634 22.0862 8.75884 22.1199 13.5326C22.1199 14.0363 22.8574 14.0301 22.8512 13.5263H22.8499C22.8099 8.38259 19.4524 5.40009 15.2774 5.37134Z" fill="#8E24AA"/>
<path d="M20.1887 12.7413C20.1774 13.2388 20.9137 13.2625 20.9199 12.7588C20.9812 9.92254 19.2324 7.5863 15.9462 7.34005C15.4649 7.30505 15.4149 8.0613 15.8949 8.0963C18.7449 8.31255 20.2462 10.2575 20.1887 12.7413Z" fill="#8E24AA"/>
<path d="M19.4013 15.9675C18.7838 15.61 18.155 15.8325 17.895 16.1838L17.3513 16.8875C17.075 17.245 16.5588 17.1975 16.5588 17.1975C12.7913 16.2013 11.7838 12.2588 11.7838 12.2588C11.7838 12.2588 11.7375 11.725 12.0825 11.4388L12.7625 10.8763C13.1025 10.6063 13.3175 9.95626 12.9713 9.31751C12.0463 7.64626 11.425 7.07001 11.1088 6.62751C10.7763 6.21126 10.2763 6.11751 9.75627 6.39876H9.74502C8.66377 7.03126 7.48002 8.21501 7.85877 9.43376C8.50502 10.7188 9.69252 14.815 13.4775 17.91C15.2563 19.3738 18.0713 20.8738 19.2663 21.22L19.2775 21.2375C20.455 21.63 21.6 20.4 22.2113 19.2863V19.2775C22.4825 18.7388 22.3925 18.2288 21.9963 17.895C21.2938 17.21 20.2338 16.4538 19.4013 15.9675Z" fill="#8E24AA"/>
<path d="M16.4612 10.13C17.6624 10.2 18.2449 10.8275 18.3075 12.1162C18.33 12.62 19.0612 12.585 19.0387 12.0812C18.9587 10.3987 18.0812 9.46122 16.5012 9.37372C16.0199 9.34497 15.9749 10.1012 16.4612 10.13Z" fill="#8E24AA"/>
</g>
<defs>
<clipPath id="clip0_341_726">
<rect width="30" height="30" fill="white"/>
</clipPath>
</defs>
</svg>
