<svg width="30" height="30" viewBox="0 0 30 30" fill="none" xmlns="http://www.w3.org/2000/svg">
<path fill-rule="evenodd" clip-rule="evenodd" d="M24.9489 5.01011C22.3176 2.37579 18.8183 0.924397 15.0904 0.922852C7.40852 0.922852 1.15661 7.17459 1.15352 14.8585C1.15249 17.3148 1.79416 19.7126 3.01382 21.8261L1.03662 29.0478L8.42475 27.1098C10.4605 28.2203 12.7523 28.8055 15.0847 28.8061H15.0905C22.7715 28.8061 29.0241 22.5539 29.027 14.8696C29.0286 11.1456 27.5803 7.64425 24.9489 5.01011ZM15.0904 26.4525H15.0856C13.0071 26.4516 10.9686 25.8931 9.18985 24.8379L8.76705 24.5867L4.38282 25.7368L5.55303 21.4623L5.27751 21.0241C4.11794 19.1797 3.50563 17.048 3.50666 14.8594C3.50906 8.47269 8.70559 3.27667 15.095 3.27667C18.189 3.2777 21.0975 4.48414 23.2844 6.67368C25.4714 8.86322 26.6751 11.7736 26.6741 14.8688C26.6713 21.256 21.4751 26.4525 15.0904 26.4525ZM21.4442 17.7769C21.0961 17.6025 19.384 16.7603 19.0647 16.6439C18.7457 16.5277 18.5133 16.4699 18.2814 16.8183C18.0491 17.1668 17.3819 17.9513 17.1786 18.1836C16.9754 18.416 16.7725 18.4452 16.4242 18.2708C16.0759 18.0965 14.9539 17.7287 13.6237 16.5423C12.5886 15.619 11.8897 14.4786 11.6865 14.1301C11.4836 13.7813 11.6848 13.611 11.8393 13.4195C12.2162 12.9513 12.5937 12.4606 12.7098 12.2283C12.826 11.9959 12.7678 11.7924 12.6806 11.6182C12.5937 11.444 11.8973 9.72994 11.6072 9.03248C11.3243 8.35373 11.0374 8.44539 10.8235 8.43475C10.6206 8.42462 10.3884 8.42256 10.1561 8.42256C9.92404 8.42256 9.54673 8.5096 9.22744 8.85841C8.90832 9.20706 8.00882 10.0494 8.00882 11.7634C8.00882 13.4775 9.25663 15.1333 9.43069 15.3658C9.60475 15.5982 11.8863 19.1155 15.3794 20.6237C16.2103 20.9829 16.8588 21.1969 17.3647 21.3574C18.199 21.6225 18.9579 21.585 19.558 21.4954C20.2272 21.3954 21.6181 20.6529 21.9086 19.8396C22.1987 19.0261 22.1987 18.329 22.1115 18.1836C22.0246 18.0383 21.7924 17.9513 21.4442 17.7769Z" fill="#4ED184"/>
</svg>
