<svg width="18" height="18" viewBox="0 0 18 18" fill="none" xmlns="http://www.w3.org/2000/svg">
<path fill-rule="evenodd" clip-rule="evenodd" d="M14.9694 3.00606C13.3907 1.42548 11.2911 0.554638 9.05432 0.553711C4.44521 0.553711 0.694065 4.30475 0.692211 8.91509C0.691593 10.3889 1.0766 11.8275 1.80839 13.0956L0.62207 17.4287L5.05495 16.2659C6.27639 16.9322 7.6515 17.2833 9.05092 17.2837H9.05442C13.663 17.2837 17.4146 13.5323 17.4163 8.92179C17.4172 6.68738 16.5483 4.58655 14.9694 3.00606ZM9.05432 15.8715H9.05143C7.80435 15.871 6.58126 15.5358 5.51401 14.9027L5.26033 14.752L2.62979 15.4421L3.33192 12.8774L3.16661 12.6144C2.47086 11.5078 2.10347 10.2288 2.10409 8.91561C2.10553 5.08361 5.22345 1.966 9.0571 1.966C10.9135 1.96662 12.6586 2.69048 13.9708 4.00421C15.2829 5.31793 16.0052 7.06414 16.0045 8.92127C16.0029 12.7536 12.8852 15.8715 9.05432 15.8715ZM12.8666 10.6661C12.6578 10.5615 11.6305 10.0562 11.4389 9.98636C11.2475 9.91664 11.1081 9.88193 10.9689 10.091C10.8296 10.3001 10.4292 10.7708 10.3073 10.9101C10.1853 11.0496 10.0636 11.0671 9.8546 10.9625C9.64562 10.8579 8.97243 10.6372 8.17431 9.92539C7.55324 9.37137 7.13394 8.68716 7.01199 8.47808C6.89025 8.26879 7.01096 8.16662 7.10366 8.05167C7.32984 7.7708 7.55633 7.47633 7.62596 7.33698C7.69568 7.19752 7.66077 7.07547 7.60845 6.97093C7.55633 6.86638 7.13847 5.83796 6.96441 5.41949C6.79467 5.01224 6.62256 5.06724 6.49423 5.06085C6.37248 5.05477 6.23313 5.05354 6.09378 5.05354C5.95452 5.05354 5.72814 5.10576 5.53656 5.31505C5.34509 5.52423 4.80539 6.02964 4.80539 7.05806C4.80539 8.08649 5.55407 9.07999 5.65851 9.21945C5.76295 9.35891 7.13188 11.4693 9.22776 12.3742C9.72627 12.5897 10.1154 12.7181 10.4189 12.8145C10.9195 12.9735 11.3748 12.951 11.7349 12.8973C12.1364 12.8372 12.971 12.3918 13.1452 11.9038C13.3193 11.4157 13.3193 10.9974 13.267 10.9101C13.2149 10.823 13.0755 10.7708 12.8666 10.6661Z" fill="white"/>
</svg>
